M48
; DRILL file {KiCad 7.0.5} date Mon Dec 11 22:38:42 2023
; FORMAT={-:-/ absolute / inch / decimal}
; #@! TF.CreationDate,2023-12-11T22:38:42-06:00
; #@! TF.GenerationSoftware,Kicad,Pcbnew,7.0.5
; #@! TF.FileFunction,Plated,1,2,PTH
FMAT,2
INCH
; #@! TA.AperFunction,Plated,PTH,ComponentDrill
T1C0.0295
; #@! TA.AperFunction,Plated,PTH,ComponentDrill
T2C0.0315
; #@! TA.AperFunction,Plated,PTH,ComponentDrill
T3C0.0320
; #@! TA.AperFunction,Plated,PTH,ComponentDrill
T4C0.0394
; #@! TA.AperFunction,Plated,PTH,ComponentDrill
T5C0.0420
; #@! TA.AperFunction,Plated,PTH,ComponentDrill
T6C0.0433
; #@! TA.AperFunction,Plated,PTH,ComponentDrill
T7C0.0450
; #@! TA.AperFunction,Plated,PTH,ComponentDrill
T8C0.0551
; #@! TA.AperFunction,Plated,PTH,ComponentDrill
T9C0.0600
; #@! TA.AperFunction,Plated,PTH,ComponentDrill
T10C0.1200
; #@! TA.AperFunction,Plated,PTH,ComponentDrill
T11C0.1380
%
G90
G05
T1
X10.175Y-3.6766
X10.175Y-3.8734
X10.93Y-11.74
X10.98Y-11.69
X11.03Y-11.74
X11.63Y-11.4
X11.68Y-11.35
X11.73Y-11.4
T2
X10.18Y-3.02
X10.18Y-3.42
X11.6322Y-3.91
X11.77Y-3.91
X12.0622Y-3.9
X12.2Y-3.9
T3
X5.1475Y-11.61
X5.1475Y-11.725
X5.1475Y-11.925
X5.225Y-3.3
X5.35Y-3.125
X5.4475Y-11.61
X5.4475Y-11.725
X5.4475Y-11.925
X5.45Y-3.125
X5.625Y-3.3
X5.9Y-3.3
X6.025Y-3.125
X6.085Y-6.925
X6.125Y-3.125
X6.185Y-6.925
X6.2Y-4.785
X6.3Y-3.3
X6.3Y-4.785
X6.32Y-6.95
X6.42Y-6.95
X6.6Y-3.3
X6.725Y-3.125
X6.825Y-3.125
X6.975Y-3.65
X7.0Y-3.3
X7.125Y-11.815
X7.125Y-11.915
X7.375Y-3.65
X7.5Y-3.65
X7.9Y-3.65
X8.025Y-3.65
X8.235Y-11.6
X8.235Y-11.7
X8.235Y-11.8
X8.425Y-3.65
X8.635Y-11.6
X8.635Y-11.7
X8.635Y-11.8
X8.735Y-11.6
X8.75Y-11.85
X8.835Y-11.5
X8.85Y-11.85
X8.935Y-11.6
X9.02Y-11.485
X9.065Y-11.59
X9.065Y-11.89
X9.165Y-11.59
X9.165Y-11.89
X9.265Y-11.59
X9.265Y-11.89
X9.365Y-11.59
X9.365Y-11.89
X9.42Y-11.485
X9.505Y-11.49
X9.505Y-11.89
X9.595Y-11.49
X9.595Y-11.89
X9.76Y-11.665
X9.76Y-11.765
X10.07Y-11.36
X10.47Y-11.36
X10.68Y-11.36
X10.78Y-11.36
X11.19Y-3.06
X11.19Y-3.46
X12.125Y-11.35
X12.125Y-11.75
X12.225Y-11.35
X12.225Y-11.75
X12.3Y-5.875
X12.3Y-9.375
X12.325Y-10.675
X12.325Y-10.85
X12.325Y-11.25
X12.325Y-11.35
X12.325Y-11.75
X12.38Y-4.43
X12.4Y-5.875
X12.4Y-9.375
X12.425Y-10.675
X12.425Y-10.85
X12.425Y-11.25
X12.425Y-11.35
X12.425Y-11.75
X12.48Y-4.43
T4
X5.2Y-4.6
X5.2Y-4.7
X5.2Y-4.8
X5.2Y-4.9
X5.2Y-5.0
X5.2Y-5.1
X5.2Y-5.2
X5.2Y-5.3
X5.2Y-5.4
X5.2Y-5.5
X5.2Y-5.6
X5.2Y-5.7
X5.2Y-5.8
X5.2Y-6.2
X5.2Y-6.3
X5.2Y-6.4
X5.2Y-6.5
X5.2Y-6.6
X5.2Y-6.7
X5.2Y-6.8
X5.2Y-6.9
X5.2Y-7.0
X5.2Y-7.1
X5.2Y-7.2
X5.2Y-7.3
X5.2Y-7.4
X5.2Y-7.8
X5.2Y-7.9
X5.2Y-8.0
X5.2Y-8.1
X5.2Y-8.2
X5.2Y-8.3
X5.2Y-8.4
X5.2Y-8.5
X5.2Y-8.6
X5.2Y-8.7
X5.2Y-8.8
X5.2Y-8.9
X5.2Y-9.0
X5.2Y-9.4
X5.2Y-9.5
X5.2Y-9.6
X5.2Y-9.7
X5.2Y-9.8
X5.2Y-9.9
X5.2Y-10.0
X5.2Y-10.1
X5.2Y-10.2
X5.2Y-10.3
X5.2Y-10.4
X5.2Y-10.5
X5.2Y-10.6
X5.3Y-4.6
X5.3Y-4.7
X5.3Y-4.8
X5.3Y-4.9
X5.3Y-5.0
X5.3Y-5.1
X5.3Y-5.2
X5.3Y-5.3
X5.3Y-5.4
X5.3Y-5.5
X5.3Y-5.6
X5.3Y-5.7
X5.3Y-5.8
X5.3Y-6.2
X5.3Y-6.3
X5.3Y-6.4
X5.3Y-6.5
X5.3Y-6.6
X5.3Y-6.7
X5.3Y-6.8
X5.3Y-6.9
X5.3Y-7.0
X5.3Y-7.1
X5.3Y-7.2
X5.3Y-7.3
X5.3Y-7.4
X5.3Y-7.8
X5.3Y-7.9
X5.3Y-8.0
X5.3Y-8.1
X5.3Y-8.2
X5.3Y-8.3
X5.3Y-8.4
X5.3Y-8.5
X5.3Y-8.6
X5.3Y-8.7
X5.3Y-8.8
X5.3Y-8.9
X5.3Y-9.0
X5.3Y-9.4
X5.3Y-9.5
X5.3Y-9.6
X5.3Y-9.7
X5.3Y-9.8
X5.3Y-9.9
X5.3Y-10.0
X5.3Y-10.1
X5.3Y-10.2
X5.3Y-10.3
X5.3Y-10.4
X5.3Y-10.5
X5.3Y-10.6
X6.21Y-11.6202
X6.21Y-11.7202
X6.58Y-11.63
X6.58Y-11.73
X6.58Y-11.83
X8.75Y-3.82
X8.75Y-3.92
X8.85Y-3.82
X8.85Y-3.92
X8.95Y-3.82
X8.95Y-3.92
X9.05Y-3.82
X9.05Y-3.92
X9.15Y-3.82
X9.15Y-3.92
X9.25Y-3.82
X9.25Y-3.92
X10.59Y-3.72
X10.59Y-3.82
X10.69Y-3.82
X10.79Y-3.82
X10.89Y-3.82
X10.99Y-3.82
X11.43Y-3.32
X11.43Y-3.52
X11.53Y-3.52
X11.63Y-3.32
X11.63Y-3.52
X12.3Y-4.775
X12.3Y-4.875
X12.3Y-4.975
X12.3Y-5.075
X12.3Y-5.175
X12.3Y-5.275
X12.3Y-5.375
X12.3Y-5.475
X12.3Y-5.575
X12.3Y-5.675
X12.3Y-6.125
X12.3Y-6.225
X12.3Y-6.325
X12.3Y-6.425
X12.3Y-6.525
X12.3Y-6.625
X12.3Y-6.725
X12.3Y-6.825
X12.3Y-6.925
X12.3Y-7.025
X12.3Y-7.2002
X12.3Y-7.3002
X12.3Y-7.4002
X12.3Y-7.5002
X12.3Y-7.6002
X12.3Y-7.7002
X12.3Y-7.8002
X12.3Y-7.9002
X12.3Y-8.0002
X12.3Y-8.1002
X12.3Y-8.275
X12.3Y-8.375
X12.3Y-8.475
X12.3Y-8.575
X12.3Y-8.675
X12.3Y-8.775
X12.3Y-8.875
X12.3Y-8.975
X12.3Y-9.075
X12.3Y-9.175
X12.3Y-9.575
X12.3Y-9.675
X12.3Y-9.775
X12.3Y-9.875
X12.3Y-9.975
X12.3Y-10.075
X12.3Y-10.175
X12.3Y-10.275
X12.3Y-10.375
X12.3Y-10.475
X12.425Y-7.2002
X12.425Y-7.3002
X12.425Y-7.4002
X12.425Y-7.5002
X12.425Y-7.6002
X12.425Y-7.7002
X12.425Y-7.8002
X12.425Y-7.9002
X12.425Y-8.0002
X12.425Y-8.1002
X12.425Y-8.275
X12.425Y-8.375
X12.425Y-8.475
X12.425Y-8.575
X12.425Y-8.675
X12.425Y-8.775
X12.425Y-8.875
X12.425Y-8.975
X12.425Y-9.075
X12.425Y-9.175
X12.44Y-4.775
X12.44Y-4.875
X12.44Y-4.975
X12.44Y-5.075
X12.44Y-5.175
X12.44Y-5.275
X12.44Y-5.375
X12.44Y-5.475
X12.44Y-5.575
X12.44Y-5.675
X12.44Y-6.125
X12.44Y-6.225
X12.44Y-6.325
X12.44Y-6.425
X12.44Y-6.525
X12.44Y-6.625
X12.44Y-6.725
X12.44Y-6.825
X12.44Y-6.925
X12.44Y-7.025
X12.44Y-9.575
X12.44Y-9.675
X12.44Y-9.775
X12.44Y-9.875
X12.44Y-9.975
X12.44Y-10.075
X12.44Y-10.175
X12.44Y-10.275
X12.44Y-10.375
X12.44Y-10.475
T5
X5.5847Y-4.5623
X5.5847Y-4.6873
X5.5847Y-4.8123
X5.5847Y-4.9373
X5.5847Y-5.0623
X5.5847Y-5.1873
X5.5847Y-5.3123
X5.5847Y-5.4373
X5.5847Y-5.5623
X5.5847Y-5.6873
X5.5847Y-5.8123
X5.5847Y-5.9373
X5.5847Y-6.0623
X5.5847Y-6.1873
X5.5847Y-6.3123
X5.5847Y-6.4373
X5.5847Y-6.5623
X5.5847Y-6.6873
X5.5847Y-6.8123
X5.5847Y-6.9373
X5.5847Y-7.0623
X5.5847Y-7.1873
X5.5847Y-7.3123
X5.5847Y-7.4373
X5.5847Y-7.5623
X5.5847Y-7.6873
X5.5847Y-7.8123
X5.5847Y-7.9373
X5.5847Y-8.0623
X5.5847Y-8.1873
X5.5847Y-8.3123
X5.5847Y-8.4373
X5.5847Y-8.5623
X5.5847Y-8.6873
X5.5847Y-8.8123
X5.5847Y-8.9373
X5.5847Y-9.0623
X5.5847Y-9.1873
X5.5847Y-9.3123
X5.5847Y-9.4373
X5.5847Y-9.5623
X5.5847Y-9.6873
X5.5847Y-9.8123
X5.5847Y-9.9373
X5.5847Y-10.0623
X5.5847Y-10.1873
X5.5847Y-10.3123
X5.5847Y-10.4373
X5.5847Y-10.5623
X5.5847Y-10.6873
X5.8347Y-4.5623
X5.8347Y-4.6873
X5.8347Y-4.8123
X5.8347Y-4.9373
X5.8347Y-5.0623
X5.8347Y-5.1873
X5.8347Y-5.3123
X5.8347Y-5.4373
X5.8347Y-5.5623
X5.8347Y-5.6873
X5.8347Y-5.8123
X5.8347Y-5.9373
X5.8347Y-6.0623
X5.8347Y-6.1873
X5.8347Y-6.3123
X5.8347Y-6.4373
X5.8347Y-6.5623
X5.8347Y-6.6873
X5.8347Y-6.8123
X5.8347Y-6.9373
X5.8347Y-7.0623
X5.8347Y-7.1873
X5.8347Y-7.3123
X5.8347Y-7.4373
X5.8347Y-7.5623
X5.8347Y-7.6873
X5.8347Y-7.8123
X5.8347Y-7.9373
X5.8347Y-8.0623
X5.8347Y-8.1873
X5.8347Y-8.3123
X5.8347Y-8.4373
X5.8347Y-8.5623
X5.8347Y-8.6873
X5.8347Y-8.8123
X5.8347Y-8.9373
X5.8347Y-9.0623
X5.8347Y-9.1873
X5.8347Y-9.3123
X5.8347Y-9.4373
X5.8347Y-9.5623
X5.8347Y-9.6873
X5.8347Y-9.8123
X5.8347Y-9.9373
X5.8347Y-10.0623
X5.8347Y-10.1873
X5.8347Y-10.3123
X5.8347Y-10.4373
X5.8347Y-10.5623
X5.8347Y-10.6873
X6.6248Y-4.5623
X6.6248Y-4.6873
X6.6248Y-4.8123
X6.6248Y-4.9373
X6.6248Y-5.0623
X6.6248Y-5.1873
X6.6248Y-5.3123
X6.6248Y-5.4373
X6.6248Y-5.5623
X6.6248Y-5.6873
X6.6248Y-5.8123
X6.6248Y-5.9373
X6.6248Y-6.0623
X6.6248Y-6.1873
X6.6248Y-6.3123
X6.6248Y-6.4373
X6.6248Y-6.5623
X6.6248Y-6.6873
X6.6248Y-6.8123
X6.6248Y-6.9373
X6.6248Y-7.0623
X6.6248Y-7.1873
X6.6248Y-7.3123
X6.6248Y-7.4373
X6.6248Y-7.5623
X6.6248Y-7.6873
X6.6248Y-7.8123
X6.6248Y-7.9373
X6.6248Y-8.0623
X6.6248Y-8.1873
X6.6248Y-8.3123
X6.6248Y-8.4373
X6.6248Y-8.5623
X6.6248Y-8.6873
X6.6248Y-8.8123
X6.6248Y-8.9373
X6.6248Y-9.0623
X6.6248Y-9.1873
X6.6248Y-9.3123
X6.6248Y-9.4373
X6.6248Y-9.5623
X6.6248Y-9.6873
X6.6248Y-9.8123
X6.6248Y-9.9373
X6.6248Y-10.0623
X6.6248Y-10.1873
X6.6248Y-10.3123
X6.6248Y-10.4373
X6.6248Y-10.5623
X6.6248Y-10.6873
X6.8748Y-4.5623
X6.8748Y-4.6873
X6.8748Y-4.8123
X6.8748Y-4.9373
X6.8748Y-5.0623
X6.8748Y-5.1873
X6.8748Y-5.3123
X6.8748Y-5.4373
X6.8748Y-5.5623
X6.8748Y-5.6873
X6.8748Y-5.8123
X6.8748Y-5.9373
X6.8748Y-6.0623
X6.8748Y-6.1873
X6.8748Y-6.3123
X6.8748Y-6.4373
X6.8748Y-6.5623
X6.8748Y-6.6873
X6.8748Y-6.8123
X6.8748Y-6.9373
X6.8748Y-7.0623
X6.8748Y-7.1873
X6.8748Y-7.3123
X6.8748Y-7.4373
X6.8748Y-7.5623
X6.8748Y-7.6873
X6.8748Y-7.8123
X6.8748Y-7.9373
X6.8748Y-8.0623
X6.8748Y-8.1873
X6.8748Y-8.3123
X6.8748Y-8.4373
X6.8748Y-8.5623
X6.8748Y-8.6873
X6.8748Y-8.8123
X6.8748Y-8.9373
X6.8748Y-9.0623
X6.8748Y-9.1873
X6.8748Y-9.3123
X6.8748Y-9.4373
X6.8748Y-9.5623
X6.8748Y-9.6873
X6.8748Y-9.8123
X6.8748Y-9.9373
X6.8748Y-10.0623
X6.8748Y-10.1873
X6.8748Y-10.3123
X6.8748Y-10.4373
X6.8748Y-10.5623
X6.8748Y-10.6873
X7.3748Y-4.5623
X7.3748Y-4.6873
X7.3748Y-4.8123
X7.3748Y-4.9373
X7.3748Y-5.0623
X7.3748Y-5.1873
X7.3748Y-5.3123
X7.3748Y-5.4373
X7.3748Y-5.5623
X7.3748Y-5.6873
X7.3748Y-5.8123
X7.3748Y-5.9373
X7.3748Y-6.0623
X7.3748Y-6.1873
X7.3748Y-6.3123
X7.3748Y-6.4373
X7.3748Y-6.5623
X7.3748Y-6.6873
X7.3748Y-6.8123
X7.3748Y-6.9373
X7.3748Y-7.0623
X7.3748Y-7.1873
X7.3748Y-7.3123
X7.3748Y-7.4373
X7.3748Y-7.5623
X7.3748Y-7.6873
X7.3748Y-7.8123
X7.3748Y-7.9373
X7.3748Y-8.0623
X7.3748Y-8.1873
X7.3748Y-8.3123
X7.3748Y-8.4373
X7.3748Y-8.5623
X7.3748Y-8.6873
X7.3748Y-8.8123
X7.3748Y-8.9373
X7.3748Y-9.0623
X7.3748Y-9.1873
X7.3748Y-9.3123
X7.3748Y-9.4373
X7.3748Y-9.5623
X7.3748Y-9.6873
X7.3748Y-9.8123
X7.3748Y-9.9373
X7.3748Y-10.0623
X7.3748Y-10.1873
X7.3748Y-10.3123
X7.3748Y-10.4373
X7.3748Y-10.5623
X7.3748Y-10.6873
X7.6248Y-4.5623
X7.6248Y-4.6873
X7.6248Y-4.8123
X7.6248Y-4.9373
X7.6248Y-5.0623
X7.6248Y-5.1873
X7.6248Y-5.3123
X7.6248Y-5.4373
X7.6248Y-5.5623
X7.6248Y-5.6873
X7.6248Y-5.8123
X7.6248Y-5.9373
X7.6248Y-6.0623
X7.6248Y-6.1873
X7.6248Y-6.3123
X7.6248Y-6.4373
X7.6248Y-6.5623
X7.6248Y-6.6873
X7.6248Y-6.8123
X7.6248Y-6.9373
X7.6248Y-7.0623
X7.6248Y-7.1873
X7.6248Y-7.3123
X7.6248Y-7.4373
X7.6248Y-7.5623
X7.6248Y-7.6873
X7.6248Y-7.8123
X7.6248Y-7.9373
X7.6248Y-8.0623
X7.6248Y-8.1873
X7.6248Y-8.3123
X7.6248Y-8.4373
X7.6248Y-8.5623
X7.6248Y-8.6873
X7.6248Y-8.8123
X7.6248Y-8.9373
X7.6248Y-9.0623
X7.6248Y-9.1873
X7.6248Y-9.3123
X7.6248Y-9.4373
X7.6248Y-9.5623
X7.6248Y-9.6873
X7.6248Y-9.8123
X7.6248Y-9.9373
X7.6248Y-10.0623
X7.6248Y-10.1873
X7.6248Y-10.3123
X7.6248Y-10.4373
X7.6248Y-10.5623
X7.6248Y-10.6873
X8.1248Y-4.5623
X8.1248Y-4.6873
X8.1248Y-4.8123
X8.1248Y-4.9373
X8.1248Y-5.0623
X8.1248Y-5.1873
X8.1248Y-5.3123
X8.1248Y-5.4373
X8.1248Y-5.5623
X8.1248Y-5.6873
X8.1248Y-5.8123
X8.1248Y-5.9373
X8.1248Y-6.0623
X8.1248Y-6.1873
X8.1248Y-6.3123
X8.1248Y-6.4373
X8.1248Y-6.5623
X8.1248Y-6.6873
X8.1248Y-6.8123
X8.1248Y-6.9373
X8.1248Y-7.0623
X8.1248Y-7.1873
X8.1248Y-7.3123
X8.1248Y-7.4373
X8.1248Y-7.5623
X8.1248Y-7.6873
X8.1248Y-7.8123
X8.1248Y-7.9373
X8.1248Y-8.0623
X8.1248Y-8.1873
X8.1248Y-8.3123
X8.1248Y-8.4373
X8.1248Y-8.5623
X8.1248Y-8.6873
X8.1248Y-8.8123
X8.1248Y-8.9373
X8.1248Y-9.0623
X8.1248Y-9.1873
X8.1248Y-9.3123
X8.1248Y-9.4373
X8.1248Y-9.5623
X8.1248Y-9.6873
X8.1248Y-9.8123
X8.1248Y-9.9373
X8.1248Y-10.0623
X8.1248Y-10.1873
X8.1248Y-10.3123
X8.1248Y-10.4373
X8.1248Y-10.5623
X8.1248Y-10.6873
X8.3748Y-4.5623
X8.3748Y-4.6873
X8.3748Y-4.8123
X8.3748Y-4.9373
X8.3748Y-5.0623
X8.3748Y-5.1873
X8.3748Y-5.3123
X8.3748Y-5.4373
X8.3748Y-5.5623
X8.3748Y-5.6873
X8.3748Y-5.8123
X8.3748Y-5.9373
X8.3748Y-6.0623
X8.3748Y-6.1873
X8.3748Y-6.3123
X8.3748Y-6.4373
X8.3748Y-6.5623
X8.3748Y-6.6873
X8.3748Y-6.8123
X8.3748Y-6.9373
X8.3748Y-7.0623
X8.3748Y-7.1873
X8.3748Y-7.3123
X8.3748Y-7.4373
X8.3748Y-7.5623
X8.3748Y-7.6873
X8.3748Y-7.8123
X8.3748Y-7.9373
X8.3748Y-8.0623
X8.3748Y-8.1873
X8.3748Y-8.3123
X8.3748Y-8.4373
X8.3748Y-8.5623
X8.3748Y-8.6873
X8.3748Y-8.8123
X8.3748Y-8.9373
X8.3748Y-9.0623
X8.3748Y-9.1873
X8.3748Y-9.3123
X8.3748Y-9.4373
X8.3748Y-9.5623
X8.3748Y-9.6873
X8.3748Y-9.8123
X8.3748Y-9.9373
X8.3748Y-10.0623
X8.3748Y-10.1873
X8.3748Y-10.3123
X8.3748Y-10.4373
X8.3748Y-10.5623
X8.3748Y-10.6873
X8.8748Y-4.5623
X8.8748Y-4.6873
X8.8748Y-4.8123
X8.8748Y-4.9373
X8.8748Y-5.0623
X8.8748Y-5.1873
X8.8748Y-5.3123
X8.8748Y-5.4373
X8.8748Y-5.5623
X8.8748Y-5.6873
X8.8748Y-5.8123
X8.8748Y-5.9373
X8.8748Y-6.0623
X8.8748Y-6.1873
X8.8748Y-6.3123
X8.8748Y-6.4373
X8.8748Y-6.5623
X8.8748Y-6.6873
X8.8748Y-6.8123
X8.8748Y-6.9373
X8.8748Y-7.0623
X8.8748Y-7.1873
X8.8748Y-7.3123
X8.8748Y-7.4373
X8.8748Y-7.5623
X8.8748Y-7.6873
X8.8748Y-7.8123
X8.8748Y-7.9373
X8.8748Y-8.0623
X8.8748Y-8.1873
X8.8748Y-8.3123
X8.8748Y-8.4373
X8.8748Y-8.5623
X8.8748Y-8.6873
X8.8748Y-8.8123
X8.8748Y-8.9373
X8.8748Y-9.0623
X8.8748Y-9.1873
X8.8748Y-9.3123
X8.8748Y-9.4373
X8.8748Y-9.5623
X8.8748Y-9.6873
X8.8748Y-9.8123
X8.8748Y-9.9373
X8.8748Y-10.0623
X8.8748Y-10.1873
X8.8748Y-10.3123
X8.8748Y-10.4373
X8.8748Y-10.5623
X8.8748Y-10.6873
X9.1248Y-4.5623
X9.1248Y-4.6873
X9.1248Y-4.8123
X9.1248Y-4.9373
X9.1248Y-5.0623
X9.1248Y-5.1873
X9.1248Y-5.3123
X9.1248Y-5.4373
X9.1248Y-5.5623
X9.1248Y-5.6873
X9.1248Y-5.8123
X9.1248Y-5.9373
X9.1248Y-6.0623
X9.1248Y-6.1873
X9.1248Y-6.3123
X9.1248Y-6.4373
X9.1248Y-6.5623
X9.1248Y-6.6873
X9.1248Y-6.8123
X9.1248Y-6.9373
X9.1248Y-7.0623
X9.1248Y-7.1873
X9.1248Y-7.3123
X9.1248Y-7.4373
X9.1248Y-7.5623
X9.1248Y-7.6873
X9.1248Y-7.8123
X9.1248Y-7.9373
X9.1248Y-8.0623
X9.1248Y-8.1873
X9.1248Y-8.3123
X9.1248Y-8.4373
X9.1248Y-8.5623
X9.1248Y-8.6873
X9.1248Y-8.8123
X9.1248Y-8.9373
X9.1248Y-9.0623
X9.1248Y-9.1873
X9.1248Y-9.3123
X9.1248Y-9.4373
X9.1248Y-9.5623
X9.1248Y-9.6873
X9.1248Y-9.8123
X9.1248Y-9.9373
X9.1248Y-10.0623
X9.1248Y-10.1873
X9.1248Y-10.3123
X9.1248Y-10.4373
X9.1248Y-10.5623
X9.1248Y-10.6873
X9.6248Y-4.5623
X9.6248Y-4.6873
X9.6248Y-4.8123
X9.6248Y-4.9373
X9.6248Y-5.0623
X9.6248Y-5.1873
X9.6248Y-5.3123
X9.6248Y-5.4373
X9.6248Y-5.5623
X9.6248Y-5.6873
X9.6248Y-5.8123
X9.6248Y-5.9373
X9.6248Y-6.0623
X9.6248Y-6.1873
X9.6248Y-6.3123
X9.6248Y-6.4373
X9.6248Y-6.5623
X9.6248Y-6.6873
X9.6248Y-6.8123
X9.6248Y-6.9373
X9.6248Y-7.0623
X9.6248Y-7.1873
X9.6248Y-7.3123
X9.6248Y-7.4373
X9.6248Y-7.5623
X9.6248Y-7.6873
X9.6248Y-7.8123
X9.6248Y-7.9373
X9.6248Y-8.0623
X9.6248Y-8.1873
X9.6248Y-8.3123
X9.6248Y-8.4373
X9.6248Y-8.5623
X9.6248Y-8.6873
X9.6248Y-8.8123
X9.6248Y-8.9373
X9.6248Y-9.0623
X9.6248Y-9.1873
X9.6248Y-9.3123
X9.6248Y-9.4373
X9.6248Y-9.5623
X9.6248Y-9.6873
X9.6248Y-9.8123
X9.6248Y-9.9373
X9.6248Y-10.0623
X9.6248Y-10.1873
X9.6248Y-10.3123
X9.6248Y-10.4373
X9.6248Y-10.5623
X9.6248Y-10.6873
X9.8748Y-4.5623
X9.8748Y-4.6873
X9.8748Y-4.8123
X9.8748Y-4.9373
X9.8748Y-5.0623
X9.8748Y-5.1873
X9.8748Y-5.3123
X9.8748Y-5.4373
X9.8748Y-5.5623
X9.8748Y-5.6873
X9.8748Y-5.8123
X9.8748Y-5.9373
X9.8748Y-6.0623
X9.8748Y-6.1873
X9.8748Y-6.3123
X9.8748Y-6.4373
X9.8748Y-6.5623
X9.8748Y-6.6873
X9.8748Y-6.8123
X9.8748Y-6.9373
X9.8748Y-7.0623
X9.8748Y-7.1873
X9.8748Y-7.3123
X9.8748Y-7.4373
X9.8748Y-7.5623
X9.8748Y-7.6873
X9.8748Y-7.8123
X9.8748Y-7.9373
X9.8748Y-8.0623
X9.8748Y-8.1873
X9.8748Y-8.3123
X9.8748Y-8.4373
X9.8748Y-8.5623
X9.8748Y-8.6873
X9.8748Y-8.8123
X9.8748Y-8.9373
X9.8748Y-9.0623
X9.8748Y-9.1873
X9.8748Y-9.3123
X9.8748Y-9.4373
X9.8748Y-9.5623
X9.8748Y-9.6873
X9.8748Y-9.8123
X9.8748Y-9.9373
X9.8748Y-10.0623
X9.8748Y-10.1873
X9.8748Y-10.3123
X9.8748Y-10.4373
X9.8748Y-10.5623
X9.8748Y-10.6873
X10.3748Y-4.5623
X10.3748Y-4.6873
X10.3748Y-4.8123
X10.3748Y-4.9373
X10.3748Y-5.0623
X10.3748Y-5.1873
X10.3748Y-5.3123
X10.3748Y-5.4373
X10.3748Y-5.5623
X10.3748Y-5.6873
X10.3748Y-5.8123
X10.3748Y-5.9373
X10.3748Y-6.0623
X10.3748Y-6.1873
X10.3748Y-6.3123
X10.3748Y-6.4373
X10.3748Y-6.5623
X10.3748Y-6.6873
X10.3748Y-6.8123
X10.3748Y-6.9373
X10.3748Y-7.0623
X10.3748Y-7.1873
X10.3748Y-7.3123
X10.3748Y-7.4373
X10.3748Y-7.5623
X10.3748Y-7.6873
X10.3748Y-7.8123
X10.3748Y-7.9373
X10.3748Y-8.0623
X10.3748Y-8.1873
X10.3748Y-8.3123
X10.3748Y-8.4373
X10.3748Y-8.5623
X10.3748Y-8.6873
X10.3748Y-8.8123
X10.3748Y-8.9373
X10.3748Y-9.0623
X10.3748Y-9.1873
X10.3748Y-9.3123
X10.3748Y-9.4373
X10.3748Y-9.5623
X10.3748Y-9.6873
X10.3748Y-9.8123
X10.3748Y-9.9373
X10.3748Y-10.0623
X10.3748Y-10.1873
X10.3748Y-10.3123
X10.3748Y-10.4373
X10.3748Y-10.5623
X10.3748Y-10.6873
X10.6248Y-4.5623
X10.6248Y-4.6873
X10.6248Y-4.8123
X10.6248Y-4.9373
X10.6248Y-5.0623
X10.6248Y-5.1873
X10.6248Y-5.3123
X10.6248Y-5.4373
X10.6248Y-5.5623
X10.6248Y-5.6873
X10.6248Y-5.8123
X10.6248Y-5.9373
X10.6248Y-6.0623
X10.6248Y-6.1873
X10.6248Y-6.3123
X10.6248Y-6.4373
X10.6248Y-6.5623
X10.6248Y-6.6873
X10.6248Y-6.8123
X10.6248Y-6.9373
X10.6248Y-7.0623
X10.6248Y-7.1873
X10.6248Y-7.3123
X10.6248Y-7.4373
X10.6248Y-7.5623
X10.6248Y-7.6873
X10.6248Y-7.8123
X10.6248Y-7.9373
X10.6248Y-8.0623
X10.6248Y-8.1873
X10.6248Y-8.3123
X10.6248Y-8.4373
X10.6248Y-8.5623
X10.6248Y-8.6873
X10.6248Y-8.8123
X10.6248Y-8.9373
X10.6248Y-9.0623
X10.6248Y-9.1873
X10.6248Y-9.3123
X10.6248Y-9.4373
X10.6248Y-9.5623
X10.6248Y-9.6873
X10.6248Y-9.8123
X10.6248Y-9.9373
X10.6248Y-10.0623
X10.6248Y-10.1873
X10.6248Y-10.3123
X10.6248Y-10.4373
X10.6248Y-10.5623
X10.6248Y-10.6873
X11.1248Y-4.5623
X11.1248Y-4.6873
X11.1248Y-4.8123
X11.1248Y-4.9373
X11.1248Y-5.0623
X11.1248Y-5.1873
X11.1248Y-5.3123
X11.1248Y-5.4373
X11.1248Y-5.5623
X11.1248Y-5.6873
X11.1248Y-5.8123
X11.1248Y-5.9373
X11.1248Y-6.0623
X11.1248Y-6.1873
X11.1248Y-6.3123
X11.1248Y-6.4373
X11.1248Y-6.5623
X11.1248Y-6.6873
X11.1248Y-6.8123
X11.1248Y-6.9373
X11.1248Y-7.0623
X11.1248Y-7.1873
X11.1248Y-7.3123
X11.1248Y-7.4373
X11.1248Y-7.5623
X11.1248Y-7.6873
X11.1248Y-7.8123
X11.1248Y-7.9373
X11.1248Y-8.0623
X11.1248Y-8.1873
X11.1248Y-8.3123
X11.1248Y-8.4373
X11.1248Y-8.5623
X11.1248Y-8.6873
X11.1248Y-8.8123
X11.1248Y-8.9373
X11.1248Y-9.0623
X11.1248Y-9.1873
X11.1248Y-9.3123
X11.1248Y-9.4373
X11.1248Y-9.5623
X11.1248Y-9.6873
X11.1248Y-9.8123
X11.1248Y-9.9373
X11.1248Y-10.0623
X11.1248Y-10.1873
X11.1248Y-10.3123
X11.1248Y-10.4373
X11.1248Y-10.5623
X11.1248Y-10.6873
X11.3748Y-4.5623
X11.3748Y-4.6873
X11.3748Y-4.8123
X11.3748Y-4.9373
X11.3748Y-5.0623
X11.3748Y-5.1873
X11.3748Y-5.3123
X11.3748Y-5.4373
X11.3748Y-5.5623
X11.3748Y-5.6873
X11.3748Y-5.8123
X11.3748Y-5.9373
X11.3748Y-6.0623
X11.3748Y-6.1873
X11.3748Y-6.3123
X11.3748Y-6.4373
X11.3748Y-6.5623
X11.3748Y-6.6873
X11.3748Y-6.8123
X11.3748Y-6.9373
X11.3748Y-7.0623
X11.3748Y-7.1873
X11.3748Y-7.3123
X11.3748Y-7.4373
X11.3748Y-7.5623
X11.3748Y-7.6873
X11.3748Y-7.8123
X11.3748Y-7.9373
X11.3748Y-8.0623
X11.3748Y-8.1873
X11.3748Y-8.3123
X11.3748Y-8.4373
X11.3748Y-8.5623
X11.3748Y-8.6873
X11.3748Y-8.8123
X11.3748Y-8.9373
X11.3748Y-9.0623
X11.3748Y-9.1873
X11.3748Y-9.3123
X11.3748Y-9.4373
X11.3748Y-9.5623
X11.3748Y-9.6873
X11.3748Y-9.8123
X11.3748Y-9.9373
X11.3748Y-10.0623
X11.3748Y-10.1873
X11.3748Y-10.3123
X11.3748Y-10.4373
X11.3748Y-10.5623
X11.3748Y-10.6873
X11.8748Y-4.5623
X11.8748Y-4.6873
X11.8748Y-4.8123
X11.8748Y-4.9373
X11.8748Y-5.0623
X11.8748Y-5.1873
X11.8748Y-5.3123
X11.8748Y-5.4373
X11.8748Y-5.5623
X11.8748Y-5.6873
X11.8748Y-5.8123
X11.8748Y-5.9373
X11.8748Y-6.0623
X11.8748Y-6.1873
X11.8748Y-6.3123
X11.8748Y-6.4373
X11.8748Y-6.5623
X11.8748Y-6.6873
X11.8748Y-6.8123
X11.8748Y-6.9373
X11.8748Y-7.0623
X11.8748Y-7.1873
X11.8748Y-7.3123
X11.8748Y-7.4373
X11.8748Y-7.5623
X11.8748Y-7.6873
X11.8748Y-7.8123
X11.8748Y-7.9373
X11.8748Y-8.0623
X11.8748Y-8.1873
X11.8748Y-8.3123
X11.8748Y-8.4373
X11.8748Y-8.5623
X11.8748Y-8.6873
X11.8748Y-8.8123
X11.8748Y-8.9373
X11.8748Y-9.0623
X11.8748Y-9.1873
X11.8748Y-9.3123
X11.8748Y-9.4373
X11.8748Y-9.5623
X11.8748Y-9.6873
X11.8748Y-9.8123
X11.8748Y-9.9373
X11.8748Y-10.0623
X11.8748Y-10.1873
X11.8748Y-10.3123
X11.8748Y-10.4373
X11.8748Y-10.5623
X11.8748Y-10.6873
X12.1248Y-4.5623
X12.1248Y-4.6873
X12.1248Y-4.8123
X12.1248Y-4.9373
X12.1248Y-5.0623
X12.1248Y-5.1873
X12.1248Y-5.3123
X12.1248Y-5.4373
X12.1248Y-5.5623
X12.1248Y-5.6873
X12.1248Y-5.8123
X12.1248Y-5.9373
X12.1248Y-6.0623
X12.1248Y-6.1873
X12.1248Y-6.3123
X12.1248Y-6.4373
X12.1248Y-6.5623
X12.1248Y-6.6873
X12.1248Y-6.8123
X12.1248Y-6.9373
X12.1248Y-7.0623
X12.1248Y-7.1873
X12.1248Y-7.3123
X12.1248Y-7.4373
X12.1248Y-7.5623
X12.1248Y-7.6873
X12.1248Y-7.8123
X12.1248Y-7.9373
X12.1248Y-8.0623
X12.1248Y-8.1873
X12.1248Y-8.3123
X12.1248Y-8.4373
X12.1248Y-8.5623
X12.1248Y-8.6873
X12.1248Y-8.8123
X12.1248Y-8.9373
X12.1248Y-9.0623
X12.1248Y-9.1873
X12.1248Y-9.3123
X12.1248Y-9.4373
X12.1248Y-9.5623
X12.1248Y-9.6873
X12.1248Y-9.8123
X12.1248Y-9.9373
X12.1248Y-10.0623
X12.1248Y-10.1873
X12.1248Y-10.3123
X12.1248Y-10.4373
X12.1248Y-10.5623
X12.1248Y-10.6873
T6
X10.0041Y-11.65
X10.0041Y-11.75
X10.0041Y-11.85
X11.9834Y-11.65
X11.9834Y-11.75
X11.9834Y-11.85
T7
X8.1425Y-11.6
X8.1425Y-11.7
X8.1425Y-11.8
T8
X9.5948Y-3.025
X9.5948Y-3.6502
X9.8448Y-3.6502
X9.97Y-3.025
X9.97Y-3.6502
T9
X7.375Y-3.15
X7.575Y-3.15
X7.775Y-3.15
X7.975Y-3.15
X8.175Y-3.15
X8.375Y-3.15
T10
X7.4925Y-11.7
T11
X5.695Y-3.885
X5.7097Y-4.2273
X5.7097Y-11.0223
X5.71Y-11.37
X6.7498Y-4.2273
X6.7498Y-11.0223
X6.75Y-3.87
X6.75Y-11.37
X7.4998Y-4.2273
X7.4998Y-11.0223
X8.2498Y-4.2273
X8.2498Y-11.0223
X8.25Y-3.87
X8.25Y-11.37
X8.9998Y-4.2273
X8.9998Y-11.0223
X9.7498Y-4.2273
X9.7498Y-11.0223
X9.75Y-3.87
X9.75Y-11.37
X10.4998Y-4.2273
X10.4998Y-11.0223
X11.2498Y-4.2273
X11.2498Y-11.0223
X11.25Y-3.87
X11.25Y-11.37
X11.9998Y-4.2273
X11.9998Y-11.0223
T4
G00X12.045Y-3.3525
M15
G01X12.045Y-3.4313
M16
G05
G00X12.2694Y-3.2738
M15
G01X12.1906Y-3.2738
M16
G05
G00X12.2694Y-3.51
M15
G01X12.1906Y-3.51
M16
G05
T0
M30
