M48
; DRILL file {KiCad 7.0.5} date Sat Jan  6 21:03:53 2024
; FORMAT={-:-/ absolute / inch / decimal}
; #@! TF.CreationDate,2024-01-06T21:03:53-06:00
; #@! TF.GenerationSoftware,Kicad,Pcbnew,7.0.5
; #@! TF.FileFunction,Plated,1,2,PTH
FMAT,2
INCH
; #@! TA.AperFunction,Plated,PTH,ComponentDrill
T1C0.0280
; #@! TA.AperFunction,Plated,PTH,ComponentDrill
T2C0.0295
; #@! TA.AperFunction,Plated,PTH,ComponentDrill
T3C0.0315
; #@! TA.AperFunction,Plated,PTH,ComponentDrill
T4C0.0320
; #@! TA.AperFunction,Plated,PTH,ComponentDrill
T5C0.0394
; #@! TA.AperFunction,Plated,PTH,ComponentDrill
T6C0.0398
; #@! TA.AperFunction,Plated,PTH,ComponentDrill
T7C0.0400
; #@! TA.AperFunction,Plated,PTH,ComponentDrill
T8C0.0420
; #@! TA.AperFunction,Plated,PTH,ComponentDrill
T9C0.0433
; #@! TA.AperFunction,Plated,PTH,ComponentDrill
T10C0.0450
; #@! TA.AperFunction,Plated,PTH,ComponentDrill
T11C0.0551
; #@! TA.AperFunction,Plated,PTH,ComponentDrill
T12C0.0600
; #@! TA.AperFunction,Plated,PTH,ComponentDrill
T13C0.1200
; #@! TA.AperFunction,Plated,PTH,ComponentDrill
T14C0.1380
%
G90
G05
T1
X7.7592Y-3.62
X7.96Y-3.62
X8.1692Y-3.62
X8.37Y-3.62
T2
X10.175Y-3.6766
X10.175Y-3.8734
X10.87Y-11.315
X10.92Y-11.365
X10.97Y-11.315
X11.06Y-11.755
X11.11Y-11.805
X11.16Y-11.755
T3
X10.18Y-3.02
X10.18Y-3.42
X11.6322Y-3.91
X11.77Y-3.91
X12.0622Y-3.9
X12.2Y-3.9
T4
X5.1475Y-11.61
X5.1475Y-11.725
X5.1475Y-11.925
X5.225Y-3.3
X5.35Y-3.125
X5.4475Y-11.61
X5.4475Y-11.725
X5.4475Y-11.925
X5.45Y-3.125
X5.625Y-3.3
X5.9Y-3.3
X6.025Y-3.125
X6.125Y-3.125
X6.215Y-3.87
X6.215Y-3.97
X6.3Y-3.3
X6.6Y-3.3
X6.725Y-3.125
X6.825Y-3.125
X7.0Y-3.3
X7.04Y-11.815
X7.04Y-11.915
X8.235Y-11.6
X8.235Y-11.7
X8.235Y-11.8
X8.58Y-11.27
X8.635Y-11.6
X8.635Y-11.7
X8.635Y-11.8
X8.68Y-11.27
X8.735Y-11.6
X8.75Y-11.85
X8.835Y-11.5
X8.85Y-11.85
X8.935Y-11.6
X9.02Y-11.27
X9.02Y-11.485
X9.065Y-11.59
X9.065Y-11.89
X9.165Y-11.59
X9.165Y-11.89
X9.265Y-11.59
X9.265Y-11.89
X9.365Y-11.59
X9.365Y-11.89
X9.42Y-11.27
X9.42Y-11.485
X9.505Y-11.49
X9.505Y-11.89
X9.595Y-11.49
X9.595Y-11.89
X9.8Y-11.665
X9.8Y-11.765
X10.02Y-11.31
X10.42Y-11.31
X10.64Y-11.26
X10.64Y-11.36
X11.19Y-3.06
X11.19Y-3.46
X12.305Y-7.19
X12.314Y-11.226
X12.325Y-4.355
X12.34Y-11.46
X12.34Y-11.86
X12.405Y-7.19
X12.414Y-11.226
X12.425Y-4.355
X12.44Y-11.46
X12.44Y-11.86
T5
X5.2Y-4.6
X5.2Y-4.7
X5.2Y-4.8
X5.2Y-4.9
X5.2Y-5.0
X5.2Y-5.1
X5.2Y-5.2
X5.2Y-5.3
X5.2Y-5.4
X5.2Y-5.5
X5.2Y-5.6
X5.2Y-5.7
X5.2Y-5.8
X5.2Y-6.2
X5.2Y-6.3
X5.2Y-6.4
X5.2Y-6.5
X5.2Y-6.6
X5.2Y-6.7
X5.2Y-6.8
X5.2Y-6.9
X5.2Y-7.0
X5.2Y-7.1
X5.2Y-7.2
X5.2Y-7.3
X5.2Y-7.4
X5.2Y-7.8
X5.2Y-7.9
X5.2Y-8.0
X5.2Y-8.1
X5.2Y-8.2
X5.2Y-8.3
X5.2Y-8.4
X5.2Y-8.5
X5.2Y-8.6
X5.2Y-8.7
X5.2Y-8.8
X5.2Y-8.9
X5.2Y-9.0
X5.2Y-9.4
X5.2Y-9.5
X5.2Y-9.6
X5.2Y-9.7
X5.2Y-9.8
X5.2Y-9.9
X5.2Y-10.0
X5.2Y-10.1
X5.2Y-10.2
X5.2Y-10.3
X5.2Y-10.4
X5.2Y-10.5
X5.2Y-10.6
X5.3Y-4.6
X5.3Y-4.7
X5.3Y-4.8
X5.3Y-4.9
X5.3Y-5.0
X5.3Y-5.1
X5.3Y-5.2
X5.3Y-5.3
X5.3Y-5.4
X5.3Y-5.5
X5.3Y-5.6
X5.3Y-5.7
X5.3Y-5.8
X5.3Y-6.2
X5.3Y-6.3
X5.3Y-6.4
X5.3Y-6.5
X5.3Y-6.6
X5.3Y-6.7
X5.3Y-6.8
X5.3Y-6.9
X5.3Y-7.0
X5.3Y-7.1
X5.3Y-7.2
X5.3Y-7.3
X5.3Y-7.4
X5.3Y-7.8
X5.3Y-7.9
X5.3Y-8.0
X5.3Y-8.1
X5.3Y-8.2
X5.3Y-8.3
X5.3Y-8.4
X5.3Y-8.5
X5.3Y-8.6
X5.3Y-8.7
X5.3Y-8.8
X5.3Y-8.9
X5.3Y-9.0
X5.3Y-9.4
X5.3Y-9.5
X5.3Y-9.6
X5.3Y-9.7
X5.3Y-9.8
X5.3Y-9.9
X5.3Y-10.0
X5.3Y-10.1
X5.3Y-10.2
X5.3Y-10.3
X5.3Y-10.4
X5.3Y-10.5
X5.3Y-10.6
X6.21Y-11.6202
X6.21Y-11.7202
X6.58Y-11.63
X6.58Y-11.73
X6.58Y-11.83
X7.8852Y-11.25
X7.9852Y-11.25
X8.75Y-3.82
X8.75Y-3.92
X8.85Y-3.82
X8.85Y-3.92
X8.95Y-3.82
X8.95Y-3.92
X9.05Y-3.82
X9.05Y-3.92
X9.15Y-3.82
X9.15Y-3.92
X9.25Y-3.82
X9.25Y-3.92
X10.59Y-3.62
X10.59Y-3.72
X10.69Y-3.72
X10.79Y-3.72
X10.89Y-3.72
X10.99Y-3.72
X11.43Y-3.32
X11.43Y-3.52
X11.53Y-3.52
X11.63Y-3.32
X11.63Y-3.52
X12.27Y-4.145
X12.3Y-4.605
X12.3Y-4.705
X12.3Y-4.805
X12.3Y-4.905
X12.3Y-5.005
X12.3Y-5.105
X12.3Y-5.205
X12.3Y-5.305
X12.3Y-5.405
X12.3Y-5.505
X12.3Y-5.7
X12.3Y-5.8
X12.3Y-5.9
X12.3Y-6.0
X12.3Y-6.1
X12.3Y-6.2
X12.3Y-6.3
X12.3Y-6.4
X12.3Y-6.5
X12.3Y-6.6
X12.3Y-6.8
X12.3Y-6.9
X12.3Y-7.0
X12.3Y-7.38
X12.3Y-7.48
X12.3Y-7.58
X12.3Y-7.68
X12.3Y-7.78
X12.3Y-7.88
X12.3Y-7.98
X12.3Y-8.08
X12.3Y-8.18
X12.3Y-8.28
X12.3Y-8.4548
X12.3Y-8.5548
X12.3Y-8.6548
X12.3Y-8.7548
X12.3Y-8.8548
X12.3Y-8.9548
X12.3Y-9.0548
X12.3Y-9.1548
X12.3Y-9.2548
X12.3Y-9.3548
X12.3Y-9.575
X12.3Y-9.675
X12.3Y-9.775
X12.3Y-9.875
X12.3Y-9.975
X12.3Y-10.075
X12.3Y-10.175
X12.3Y-10.275
X12.3Y-10.375
X12.3Y-10.475
X12.37Y-4.145
X12.425Y-4.605
X12.425Y-4.705
X12.425Y-4.805
X12.425Y-4.905
X12.425Y-5.005
X12.425Y-5.105
X12.425Y-5.205
X12.425Y-5.305
X12.425Y-5.405
X12.425Y-5.505
X12.425Y-5.7
X12.425Y-5.8
X12.425Y-5.9
X12.425Y-6.0
X12.425Y-6.1
X12.425Y-6.2
X12.425Y-6.3
X12.425Y-6.4
X12.425Y-6.5
X12.425Y-6.6
X12.425Y-6.8
X12.425Y-6.9
X12.425Y-7.0
X12.425Y-7.38
X12.425Y-7.48
X12.425Y-7.58
X12.425Y-7.68
X12.425Y-7.78
X12.425Y-7.88
X12.425Y-7.98
X12.425Y-8.08
X12.425Y-8.18
X12.425Y-8.28
X12.425Y-8.4548
X12.425Y-8.5548
X12.425Y-8.6548
X12.425Y-8.7548
X12.425Y-8.8548
X12.425Y-8.9548
X12.425Y-9.0548
X12.425Y-9.1548
X12.425Y-9.2548
X12.425Y-9.3548
X12.44Y-9.575
X12.44Y-9.675
X12.44Y-9.775
X12.44Y-9.875
X12.44Y-9.975
X12.44Y-10.075
X12.44Y-10.175
X12.44Y-10.275
X12.44Y-10.375
X12.44Y-10.475
X12.44Y-10.628
X12.44Y-10.728
X12.44Y-10.828
X12.44Y-10.928
X12.44Y-11.028
X12.47Y-4.145
T6
X7.26Y-3.57
X7.4608Y-3.6645
T7
X6.6248Y-4.5623
X6.6248Y-4.6873
X6.6248Y-4.8123
X6.6248Y-4.9373
X6.6248Y-5.0623
X6.6248Y-5.1873
X6.6248Y-5.3123
X6.6248Y-5.4373
X6.6248Y-5.5623
X6.6248Y-5.6873
X6.6248Y-5.8123
X6.6248Y-5.9373
X6.6248Y-6.0623
X6.6248Y-6.1873
X6.6248Y-6.3123
X6.6248Y-6.4373
X6.6248Y-6.5623
X6.6248Y-6.6873
X6.6248Y-6.8123
X6.6248Y-6.9373
X6.6248Y-7.0623
X6.6248Y-7.1873
X6.6248Y-7.3123
X6.6248Y-7.4373
X6.6248Y-7.5623
X6.6248Y-7.6873
X6.6248Y-7.8123
X6.6248Y-7.9373
X6.6248Y-8.0623
X6.6248Y-8.1873
X6.6248Y-8.3123
X6.6248Y-8.4373
X6.6248Y-8.5623
X6.6248Y-8.6873
X6.6248Y-8.8123
X6.6248Y-8.9373
X6.6248Y-9.0623
X6.6248Y-9.1873
X6.6248Y-9.3123
X6.6248Y-9.4373
X6.6248Y-9.5623
X6.6248Y-9.6873
X6.6248Y-9.8123
X6.6248Y-9.9373
X6.6248Y-10.0623
X6.6248Y-10.1873
X6.6248Y-10.3123
X6.6248Y-10.4373
X6.6248Y-10.5623
X6.6248Y-10.6873
X6.8748Y-4.5623
X6.8748Y-4.6873
X6.8748Y-4.8123
X6.8748Y-4.9373
X6.8748Y-5.0623
X6.8748Y-5.1873
X6.8748Y-5.3123
X6.8748Y-5.4373
X6.8748Y-5.5623
X6.8748Y-5.6873
X6.8748Y-5.8123
X6.8748Y-5.9373
X6.8748Y-6.0623
X6.8748Y-6.1873
X6.8748Y-6.3123
X6.8748Y-6.4373
X6.8748Y-6.5623
X6.8748Y-6.6873
X6.8748Y-6.8123
X6.8748Y-6.9373
X6.8748Y-7.0623
X6.8748Y-7.1873
X6.8748Y-7.3123
X6.8748Y-7.4373
X6.8748Y-7.5623
X6.8748Y-7.6873
X6.8748Y-7.8123
X6.8748Y-7.9373
X6.8748Y-8.0623
X6.8748Y-8.1873
X6.8748Y-8.3123
X6.8748Y-8.4373
X6.8748Y-8.5623
X6.8748Y-8.6873
X6.8748Y-8.8123
X6.8748Y-8.9373
X6.8748Y-9.0623
X6.8748Y-9.1873
X6.8748Y-9.3123
X6.8748Y-9.4373
X6.8748Y-9.5623
X6.8748Y-9.6873
X6.8748Y-9.8123
X6.8748Y-9.9373
X6.8748Y-10.0623
X6.8748Y-10.1873
X6.8748Y-10.3123
X6.8748Y-10.4373
X6.8748Y-10.5623
X6.8748Y-10.6873
T8
X5.5847Y-4.5623
X5.5847Y-4.6873
X5.5847Y-4.8123
X5.5847Y-4.9373
X5.5847Y-5.0623
X5.5847Y-5.1873
X5.5847Y-5.3123
X5.5847Y-5.4373
X5.5847Y-5.5623
X5.5847Y-5.6873
X5.5847Y-5.8123
X5.5847Y-5.9373
X5.5847Y-6.0623
X5.5847Y-6.1873
X5.5847Y-6.3123
X5.5847Y-6.4373
X5.5847Y-6.5623
X5.5847Y-6.6873
X5.5847Y-6.8123
X5.5847Y-6.9373
X5.5847Y-7.0623
X5.5847Y-7.1873
X5.5847Y-7.3123
X5.5847Y-7.4373
X5.5847Y-7.5623
X5.5847Y-7.6873
X5.5847Y-7.8123
X5.5847Y-7.9373
X5.5847Y-8.0623
X5.5847Y-8.1873
X5.5847Y-8.3123
X5.5847Y-8.4373
X5.5847Y-8.5623
X5.5847Y-8.6873
X5.5847Y-8.8123
X5.5847Y-8.9373
X5.5847Y-9.0623
X5.5847Y-9.1873
X5.5847Y-9.3123
X5.5847Y-9.4373
X5.5847Y-9.5623
X5.5847Y-9.6873
X5.5847Y-9.8123
X5.5847Y-9.9373
X5.5847Y-10.0623
X5.5847Y-10.1873
X5.5847Y-10.3123
X5.5847Y-10.4373
X5.5847Y-10.5623
X5.5847Y-10.6873
X5.8347Y-4.5623
X5.8347Y-4.6873
X5.8347Y-4.8123
X5.8347Y-4.9373
X5.8347Y-5.0623
X5.8347Y-5.1873
X5.8347Y-5.3123
X5.8347Y-5.4373
X5.8347Y-5.5623
X5.8347Y-5.6873
X5.8347Y-5.8123
X5.8347Y-5.9373
X5.8347Y-6.0623
X5.8347Y-6.1873
X5.8347Y-6.3123
X5.8347Y-6.4373
X5.8347Y-6.5623
X5.8347Y-6.6873
X5.8347Y-6.8123
X5.8347Y-6.9373
X5.8347Y-7.0623
X5.8347Y-7.1873
X5.8347Y-7.3123
X5.8347Y-7.4373
X5.8347Y-7.5623
X5.8347Y-7.6873
X5.8347Y-7.8123
X5.8347Y-7.9373
X5.8347Y-8.0623
X5.8347Y-8.1873
X5.8347Y-8.3123
X5.8347Y-8.4373
X5.8347Y-8.5623
X5.8347Y-8.6873
X5.8347Y-8.8123
X5.8347Y-8.9373
X5.8347Y-9.0623
X5.8347Y-9.1873
X5.8347Y-9.3123
X5.8347Y-9.4373
X5.8347Y-9.5623
X5.8347Y-9.6873
X5.8347Y-9.8123
X5.8347Y-9.9373
X5.8347Y-10.0623
X5.8347Y-10.1873
X5.8347Y-10.3123
X5.8347Y-10.4373
X5.8347Y-10.5623
X5.8347Y-10.6873
X7.3748Y-4.5623
X7.3748Y-4.6873
X7.3748Y-4.8123
X7.3748Y-4.9373
X7.3748Y-5.0623
X7.3748Y-5.1873
X7.3748Y-5.3123
X7.3748Y-5.4373
X7.3748Y-5.5623
X7.3748Y-5.6873
X7.3748Y-5.8123
X7.3748Y-5.9373
X7.3748Y-6.0623
X7.3748Y-6.1873
X7.3748Y-6.3123
X7.3748Y-6.4373
X7.3748Y-6.5623
X7.3748Y-6.6873
X7.3748Y-6.8123
X7.3748Y-6.9373
X7.3748Y-7.0623
X7.3748Y-7.1873
X7.3748Y-7.3123
X7.3748Y-7.4373
X7.3748Y-7.5623
X7.3748Y-7.6873
X7.3748Y-7.8123
X7.3748Y-7.9373
X7.3748Y-8.0623
X7.3748Y-8.1873
X7.3748Y-8.3123
X7.3748Y-8.4373
X7.3748Y-8.5623
X7.3748Y-8.6873
X7.3748Y-8.8123
X7.3748Y-8.9373
X7.3748Y-9.0623
X7.3748Y-9.1873
X7.3748Y-9.3123
X7.3748Y-9.4373
X7.3748Y-9.5623
X7.3748Y-9.6873
X7.3748Y-9.8123
X7.3748Y-9.9373
X7.3748Y-10.0623
X7.3748Y-10.1873
X7.3748Y-10.3123
X7.3748Y-10.4373
X7.3748Y-10.5623
X7.3748Y-10.6873
X7.6248Y-4.5623
X7.6248Y-4.6873
X7.6248Y-4.8123
X7.6248Y-4.9373
X7.6248Y-5.0623
X7.6248Y-5.1873
X7.6248Y-5.3123
X7.6248Y-5.4373
X7.6248Y-5.5623
X7.6248Y-5.6873
X7.6248Y-5.8123
X7.6248Y-5.9373
X7.6248Y-6.0623
X7.6248Y-6.1873
X7.6248Y-6.3123
X7.6248Y-6.4373
X7.6248Y-6.5623
X7.6248Y-6.6873
X7.6248Y-6.8123
X7.6248Y-6.9373
X7.6248Y-7.0623
X7.6248Y-7.1873
X7.6248Y-7.3123
X7.6248Y-7.4373
X7.6248Y-7.5623
X7.6248Y-7.6873
X7.6248Y-7.8123
X7.6248Y-7.9373
X7.6248Y-8.0623
X7.6248Y-8.1873
X7.6248Y-8.3123
X7.6248Y-8.4373
X7.6248Y-8.5623
X7.6248Y-8.6873
X7.6248Y-8.8123
X7.6248Y-8.9373
X7.6248Y-9.0623
X7.6248Y-9.1873
X7.6248Y-9.3123
X7.6248Y-9.4373
X7.6248Y-9.5623
X7.6248Y-9.6873
X7.6248Y-9.8123
X7.6248Y-9.9373
X7.6248Y-10.0623
X7.6248Y-10.1873
X7.6248Y-10.3123
X7.6248Y-10.4373
X7.6248Y-10.5623
X7.6248Y-10.6873
X8.1248Y-4.5623
X8.1248Y-4.6873
X8.1248Y-4.8123
X8.1248Y-4.9373
X8.1248Y-5.0623
X8.1248Y-5.1873
X8.1248Y-5.3123
X8.1248Y-5.4373
X8.1248Y-5.5623
X8.1248Y-5.6873
X8.1248Y-5.8123
X8.1248Y-5.9373
X8.1248Y-6.0623
X8.1248Y-6.1873
X8.1248Y-6.3123
X8.1248Y-6.4373
X8.1248Y-6.5623
X8.1248Y-6.6873
X8.1248Y-6.8123
X8.1248Y-6.9373
X8.1248Y-7.0623
X8.1248Y-7.1873
X8.1248Y-7.3123
X8.1248Y-7.4373
X8.1248Y-7.5623
X8.1248Y-7.6873
X8.1248Y-7.8123
X8.1248Y-7.9373
X8.1248Y-8.0623
X8.1248Y-8.1873
X8.1248Y-8.3123
X8.1248Y-8.4373
X8.1248Y-8.5623
X8.1248Y-8.6873
X8.1248Y-8.8123
X8.1248Y-8.9373
X8.1248Y-9.0623
X8.1248Y-9.1873
X8.1248Y-9.3123
X8.1248Y-9.4373
X8.1248Y-9.5623
X8.1248Y-9.6873
X8.1248Y-9.8123
X8.1248Y-9.9373
X8.1248Y-10.0623
X8.1248Y-10.1873
X8.1248Y-10.3123
X8.1248Y-10.4373
X8.1248Y-10.5623
X8.1248Y-10.6873
X8.3748Y-4.5623
X8.3748Y-4.6873
X8.3748Y-4.8123
X8.3748Y-4.9373
X8.3748Y-5.0623
X8.3748Y-5.1873
X8.3748Y-5.3123
X8.3748Y-5.4373
X8.3748Y-5.5623
X8.3748Y-5.6873
X8.3748Y-5.8123
X8.3748Y-5.9373
X8.3748Y-6.0623
X8.3748Y-6.1873
X8.3748Y-6.3123
X8.3748Y-6.4373
X8.3748Y-6.5623
X8.3748Y-6.6873
X8.3748Y-6.8123
X8.3748Y-6.9373
X8.3748Y-7.0623
X8.3748Y-7.1873
X8.3748Y-7.3123
X8.3748Y-7.4373
X8.3748Y-7.5623
X8.3748Y-7.6873
X8.3748Y-7.8123
X8.3748Y-7.9373
X8.3748Y-8.0623
X8.3748Y-8.1873
X8.3748Y-8.3123
X8.3748Y-8.4373
X8.3748Y-8.5623
X8.3748Y-8.6873
X8.3748Y-8.8123
X8.3748Y-8.9373
X8.3748Y-9.0623
X8.3748Y-9.1873
X8.3748Y-9.3123
X8.3748Y-9.4373
X8.3748Y-9.5623
X8.3748Y-9.6873
X8.3748Y-9.8123
X8.3748Y-9.9373
X8.3748Y-10.0623
X8.3748Y-10.1873
X8.3748Y-10.3123
X8.3748Y-10.4373
X8.3748Y-10.5623
X8.3748Y-10.6873
X8.8748Y-4.5623
X8.8748Y-4.6873
X8.8748Y-4.8123
X8.8748Y-4.9373
X8.8748Y-5.0623
X8.8748Y-5.1873
X8.8748Y-5.3123
X8.8748Y-5.4373
X8.8748Y-5.5623
X8.8748Y-5.6873
X8.8748Y-5.8123
X8.8748Y-5.9373
X8.8748Y-6.0623
X8.8748Y-6.1873
X8.8748Y-6.3123
X8.8748Y-6.4373
X8.8748Y-6.5623
X8.8748Y-6.6873
X8.8748Y-6.8123
X8.8748Y-6.9373
X8.8748Y-7.0623
X8.8748Y-7.1873
X8.8748Y-7.3123
X8.8748Y-7.4373
X8.8748Y-7.5623
X8.8748Y-7.6873
X8.8748Y-7.8123
X8.8748Y-7.9373
X8.8748Y-8.0623
X8.8748Y-8.1873
X8.8748Y-8.3123
X8.8748Y-8.4373
X8.8748Y-8.5623
X8.8748Y-8.6873
X8.8748Y-8.8123
X8.8748Y-8.9373
X8.8748Y-9.0623
X8.8748Y-9.1873
X8.8748Y-9.3123
X8.8748Y-9.4373
X8.8748Y-9.5623
X8.8748Y-9.6873
X8.8748Y-9.8123
X8.8748Y-9.9373
X8.8748Y-10.0623
X8.8748Y-10.1873
X8.8748Y-10.3123
X8.8748Y-10.4373
X8.8748Y-10.5623
X8.8748Y-10.6873
X9.1248Y-4.5623
X9.1248Y-4.6873
X9.1248Y-4.8123
X9.1248Y-4.9373
X9.1248Y-5.0623
X9.1248Y-5.1873
X9.1248Y-5.3123
X9.1248Y-5.4373
X9.1248Y-5.5623
X9.1248Y-5.6873
X9.1248Y-5.8123
X9.1248Y-5.9373
X9.1248Y-6.0623
X9.1248Y-6.1873
X9.1248Y-6.3123
X9.1248Y-6.4373
X9.1248Y-6.5623
X9.1248Y-6.6873
X9.1248Y-6.8123
X9.1248Y-6.9373
X9.1248Y-7.0623
X9.1248Y-7.1873
X9.1248Y-7.3123
X9.1248Y-7.4373
X9.1248Y-7.5623
X9.1248Y-7.6873
X9.1248Y-7.8123
X9.1248Y-7.9373
X9.1248Y-8.0623
X9.1248Y-8.1873
X9.1248Y-8.3123
X9.1248Y-8.4373
X9.1248Y-8.5623
X9.1248Y-8.6873
X9.1248Y-8.8123
X9.1248Y-8.9373
X9.1248Y-9.0623
X9.1248Y-9.1873
X9.1248Y-9.3123
X9.1248Y-9.4373
X9.1248Y-9.5623
X9.1248Y-9.6873
X9.1248Y-9.8123
X9.1248Y-9.9373
X9.1248Y-10.0623
X9.1248Y-10.1873
X9.1248Y-10.3123
X9.1248Y-10.4373
X9.1248Y-10.5623
X9.1248Y-10.6873
X9.6248Y-4.5623
X9.6248Y-4.6873
X9.6248Y-4.8123
X9.6248Y-4.9373
X9.6248Y-5.0623
X9.6248Y-5.1873
X9.6248Y-5.3123
X9.6248Y-5.4373
X9.6248Y-5.5623
X9.6248Y-5.6873
X9.6248Y-5.8123
X9.6248Y-5.9373
X9.6248Y-6.0623
X9.6248Y-6.1873
X9.6248Y-6.3123
X9.6248Y-6.4373
X9.6248Y-6.5623
X9.6248Y-6.6873
X9.6248Y-6.8123
X9.6248Y-6.9373
X9.6248Y-7.0623
X9.6248Y-7.1873
X9.6248Y-7.3123
X9.6248Y-7.4373
X9.6248Y-7.5623
X9.6248Y-7.6873
X9.6248Y-7.8123
X9.6248Y-7.9373
X9.6248Y-8.0623
X9.6248Y-8.1873
X9.6248Y-8.3123
X9.6248Y-8.4373
X9.6248Y-8.5623
X9.6248Y-8.6873
X9.6248Y-8.8123
X9.6248Y-8.9373
X9.6248Y-9.0623
X9.6248Y-9.1873
X9.6248Y-9.3123
X9.6248Y-9.4373
X9.6248Y-9.5623
X9.6248Y-9.6873
X9.6248Y-9.8123
X9.6248Y-9.9373
X9.6248Y-10.0623
X9.6248Y-10.1873
X9.6248Y-10.3123
X9.6248Y-10.4373
X9.6248Y-10.5623
X9.6248Y-10.6873
X9.8748Y-4.5623
X9.8748Y-4.6873
X9.8748Y-4.8123
X9.8748Y-4.9373
X9.8748Y-5.0623
X9.8748Y-5.1873
X9.8748Y-5.3123
X9.8748Y-5.4373
X9.8748Y-5.5623
X9.8748Y-5.6873
X9.8748Y-5.8123
X9.8748Y-5.9373
X9.8748Y-6.0623
X9.8748Y-6.1873
X9.8748Y-6.3123
X9.8748Y-6.4373
X9.8748Y-6.5623
X9.8748Y-6.6873
X9.8748Y-6.8123
X9.8748Y-6.9373
X9.8748Y-7.0623
X9.8748Y-7.1873
X9.8748Y-7.3123
X9.8748Y-7.4373
X9.8748Y-7.5623
X9.8748Y-7.6873
X9.8748Y-7.8123
X9.8748Y-7.9373
X9.8748Y-8.0623
X9.8748Y-8.1873
X9.8748Y-8.3123
X9.8748Y-8.4373
X9.8748Y-8.5623
X9.8748Y-8.6873
X9.8748Y-8.8123
X9.8748Y-8.9373
X9.8748Y-9.0623
X9.8748Y-9.1873
X9.8748Y-9.3123
X9.8748Y-9.4373
X9.8748Y-9.5623
X9.8748Y-9.6873
X9.8748Y-9.8123
X9.8748Y-9.9373
X9.8748Y-10.0623
X9.8748Y-10.1873
X9.8748Y-10.3123
X9.8748Y-10.4373
X9.8748Y-10.5623
X9.8748Y-10.6873
X10.3748Y-4.5623
X10.3748Y-4.6873
X10.3748Y-4.8123
X10.3748Y-4.9373
X10.3748Y-5.0623
X10.3748Y-5.1873
X10.3748Y-5.3123
X10.3748Y-5.4373
X10.3748Y-5.5623
X10.3748Y-5.6873
X10.3748Y-5.8123
X10.3748Y-5.9373
X10.3748Y-6.0623
X10.3748Y-6.1873
X10.3748Y-6.3123
X10.3748Y-6.4373
X10.3748Y-6.5623
X10.3748Y-6.6873
X10.3748Y-6.8123
X10.3748Y-6.9373
X10.3748Y-7.0623
X10.3748Y-7.1873
X10.3748Y-7.3123
X10.3748Y-7.4373
X10.3748Y-7.5623
X10.3748Y-7.6873
X10.3748Y-7.8123
X10.3748Y-7.9373
X10.3748Y-8.0623
X10.3748Y-8.1873
X10.3748Y-8.3123
X10.3748Y-8.4373
X10.3748Y-8.5623
X10.3748Y-8.6873
X10.3748Y-8.8123
X10.3748Y-8.9373
X10.3748Y-9.0623
X10.3748Y-9.1873
X10.3748Y-9.3123
X10.3748Y-9.4373
X10.3748Y-9.5623
X10.3748Y-9.6873
X10.3748Y-9.8123
X10.3748Y-9.9373
X10.3748Y-10.0623
X10.3748Y-10.1873
X10.3748Y-10.3123
X10.3748Y-10.4373
X10.3748Y-10.5623
X10.3748Y-10.6873
X10.6248Y-4.5623
X10.6248Y-4.6873
X10.6248Y-4.8123
X10.6248Y-4.9373
X10.6248Y-5.0623
X10.6248Y-5.1873
X10.6248Y-5.3123
X10.6248Y-5.4373
X10.6248Y-5.5623
X10.6248Y-5.6873
X10.6248Y-5.8123
X10.6248Y-5.9373
X10.6248Y-6.0623
X10.6248Y-6.1873
X10.6248Y-6.3123
X10.6248Y-6.4373
X10.6248Y-6.5623
X10.6248Y-6.6873
X10.6248Y-6.8123
X10.6248Y-6.9373
X10.6248Y-7.0623
X10.6248Y-7.1873
X10.6248Y-7.3123
X10.6248Y-7.4373
X10.6248Y-7.5623
X10.6248Y-7.6873
X10.6248Y-7.8123
X10.6248Y-7.9373
X10.6248Y-8.0623
X10.6248Y-8.1873
X10.6248Y-8.3123
X10.6248Y-8.4373
X10.6248Y-8.5623
X10.6248Y-8.6873
X10.6248Y-8.8123
X10.6248Y-8.9373
X10.6248Y-9.0623
X10.6248Y-9.1873
X10.6248Y-9.3123
X10.6248Y-9.4373
X10.6248Y-9.5623
X10.6248Y-9.6873
X10.6248Y-9.8123
X10.6248Y-9.9373
X10.6248Y-10.0623
X10.6248Y-10.1873
X10.6248Y-10.3123
X10.6248Y-10.4373
X10.6248Y-10.5623
X10.6248Y-10.6873
X11.1248Y-4.5623
X11.1248Y-4.6873
X11.1248Y-4.8123
X11.1248Y-4.9373
X11.1248Y-5.0623
X11.1248Y-5.1873
X11.1248Y-5.3123
X11.1248Y-5.4373
X11.1248Y-5.5623
X11.1248Y-5.6873
X11.1248Y-5.8123
X11.1248Y-5.9373
X11.1248Y-6.0623
X11.1248Y-6.1873
X11.1248Y-6.3123
X11.1248Y-6.4373
X11.1248Y-6.5623
X11.1248Y-6.6873
X11.1248Y-6.8123
X11.1248Y-6.9373
X11.1248Y-7.0623
X11.1248Y-7.1873
X11.1248Y-7.3123
X11.1248Y-7.4373
X11.1248Y-7.5623
X11.1248Y-7.6873
X11.1248Y-7.8123
X11.1248Y-7.9373
X11.1248Y-8.0623
X11.1248Y-8.1873
X11.1248Y-8.3123
X11.1248Y-8.4373
X11.1248Y-8.5623
X11.1248Y-8.6873
X11.1248Y-8.8123
X11.1248Y-8.9373
X11.1248Y-9.0623
X11.1248Y-9.1873
X11.1248Y-9.3123
X11.1248Y-9.4373
X11.1248Y-9.5623
X11.1248Y-9.6873
X11.1248Y-9.8123
X11.1248Y-9.9373
X11.1248Y-10.0623
X11.1248Y-10.1873
X11.1248Y-10.3123
X11.1248Y-10.4373
X11.1248Y-10.5623
X11.1248Y-10.6873
X11.3748Y-4.5623
X11.3748Y-4.6873
X11.3748Y-4.8123
X11.3748Y-4.9373
X11.3748Y-5.0623
X11.3748Y-5.1873
X11.3748Y-5.3123
X11.3748Y-5.4373
X11.3748Y-5.5623
X11.3748Y-5.6873
X11.3748Y-5.8123
X11.3748Y-5.9373
X11.3748Y-6.0623
X11.3748Y-6.1873
X11.3748Y-6.3123
X11.3748Y-6.4373
X11.3748Y-6.5623
X11.3748Y-6.6873
X11.3748Y-6.8123
X11.3748Y-6.9373
X11.3748Y-7.0623
X11.3748Y-7.1873
X11.3748Y-7.3123
X11.3748Y-7.4373
X11.3748Y-7.5623
X11.3748Y-7.6873
X11.3748Y-7.8123
X11.3748Y-7.9373
X11.3748Y-8.0623
X11.3748Y-8.1873
X11.3748Y-8.3123
X11.3748Y-8.4373
X11.3748Y-8.5623
X11.3748Y-8.6873
X11.3748Y-8.8123
X11.3748Y-8.9373
X11.3748Y-9.0623
X11.3748Y-9.1873
X11.3748Y-9.3123
X11.3748Y-9.4373
X11.3748Y-9.5623
X11.3748Y-9.6873
X11.3748Y-9.8123
X11.3748Y-9.9373
X11.3748Y-10.0623
X11.3748Y-10.1873
X11.3748Y-10.3123
X11.3748Y-10.4373
X11.3748Y-10.5623
X11.3748Y-10.6873
X11.8748Y-4.5623
X11.8748Y-4.6873
X11.8748Y-4.8123
X11.8748Y-4.9373
X11.8748Y-5.0623
X11.8748Y-5.1873
X11.8748Y-5.3123
X11.8748Y-5.4373
X11.8748Y-5.5623
X11.8748Y-5.6873
X11.8748Y-5.8123
X11.8748Y-5.9373
X11.8748Y-6.0623
X11.8748Y-6.1873
X11.8748Y-6.3123
X11.8748Y-6.4373
X11.8748Y-6.5623
X11.8748Y-6.6873
X11.8748Y-6.8123
X11.8748Y-6.9373
X11.8748Y-7.0623
X11.8748Y-7.1873
X11.8748Y-7.3123
X11.8748Y-7.4373
X11.8748Y-7.5623
X11.8748Y-7.6873
X11.8748Y-7.8123
X11.8748Y-7.9373
X11.8748Y-8.0623
X11.8748Y-8.1873
X11.8748Y-8.3123
X11.8748Y-8.4373
X11.8748Y-8.5623
X11.8748Y-8.6873
X11.8748Y-8.8123
X11.8748Y-8.9373
X11.8748Y-9.0623
X11.8748Y-9.1873
X11.8748Y-9.3123
X11.8748Y-9.4373
X11.8748Y-9.5623
X11.8748Y-9.6873
X11.8748Y-9.8123
X11.8748Y-9.9373
X11.8748Y-10.0623
X11.8748Y-10.1873
X11.8748Y-10.3123
X11.8748Y-10.4373
X11.8748Y-10.5623
X11.8748Y-10.6873
X12.1248Y-4.5623
X12.1248Y-4.6873
X12.1248Y-4.8123
X12.1248Y-4.9373
X12.1248Y-5.0623
X12.1248Y-5.1873
X12.1248Y-5.3123
X12.1248Y-5.4373
X12.1248Y-5.5623
X12.1248Y-5.6873
X12.1248Y-5.8123
X12.1248Y-5.9373
X12.1248Y-6.0623
X12.1248Y-6.1873
X12.1248Y-6.3123
X12.1248Y-6.4373
X12.1248Y-6.5623
X12.1248Y-6.6873
X12.1248Y-6.8123
X12.1248Y-6.9373
X12.1248Y-7.0623
X12.1248Y-7.1873
X12.1248Y-7.3123
X12.1248Y-7.4373
X12.1248Y-7.5623
X12.1248Y-7.6873
X12.1248Y-7.8123
X12.1248Y-7.9373
X12.1248Y-8.0623
X12.1248Y-8.1873
X12.1248Y-8.3123
X12.1248Y-8.4373
X12.1248Y-8.5623
X12.1248Y-8.6873
X12.1248Y-8.8123
X12.1248Y-8.9373
X12.1248Y-9.0623
X12.1248Y-9.1873
X12.1248Y-9.3123
X12.1248Y-9.4373
X12.1248Y-9.5623
X12.1248Y-9.6873
X12.1248Y-9.8123
X12.1248Y-9.9373
X12.1248Y-10.0623
X12.1248Y-10.1873
X12.1248Y-10.3123
X12.1248Y-10.4373
X12.1248Y-10.5623
X12.1248Y-10.6873
T9
X10.0041Y-11.63
X10.0041Y-11.73
X10.0041Y-11.83
X11.42Y-11.63
X11.42Y-11.73
X11.42Y-11.83
T10
X8.1425Y-11.6
X8.1425Y-11.7
X8.1425Y-11.8
T11
X9.5948Y-3.025
X9.5948Y-3.6502
X9.8448Y-3.6502
X9.97Y-3.025
X9.97Y-3.6502
T12
X7.375Y-3.12
X7.575Y-3.12
X7.775Y-3.12
X7.975Y-3.12
X8.175Y-3.12
X8.375Y-3.12
T13
X7.4925Y-11.7
X10.66Y-11.73
X12.0759Y-11.73
T14
X5.695Y-3.885
X5.7097Y-4.2273
X5.7097Y-11.0223
X5.71Y-11.37
X6.7498Y-4.2273
X6.7498Y-11.0223
X6.75Y-3.87
X6.75Y-11.37
X7.4998Y-4.2273
X7.4998Y-11.0223
X8.2498Y-4.2273
X8.2498Y-11.0223
X8.25Y-3.87
X8.25Y-11.37
X8.9998Y-4.2273
X8.9998Y-11.0223
X9.7498Y-4.2273
X9.7498Y-11.0223
X9.75Y-3.87
X9.75Y-11.37
X10.4998Y-4.2273
X10.4998Y-11.0223
X11.2498Y-4.2273
X11.2498Y-11.0223
X11.25Y-3.87
X11.25Y-11.37
X11.9998Y-4.2273
X11.9998Y-11.0223
T5
X12.045Y-3.3525G85X12.045Y-3.4313
G05
X12.2694Y-3.2738G85X12.1906Y-3.2738
G05
X12.2694Y-3.51G85X12.1906Y-3.51
G05
T0
M30
