%TF.GenerationSoftware,KiCad,Pcbnew,7.0.5*%
%TF.CreationDate,2023-12-11T22:38:43-06:00*%
%TF.ProjectId,S100-Backplane,53313030-2d42-4616-936b-706c616e652e,rev?*%
%TF.SameCoordinates,Original*%
%TF.FileFunction,Drillmap*%
%TF.FilePolarity,Positive*%
%FSLAX45Y45*%
G04 Gerber Fmt 4.5, Leading zero omitted, Abs format (unit mm)*
G04 Created by KiCad (PCBNEW 7.0.5) date 2023-12-11 22:38:43*
%MOMM*%
%LPD*%
G01*
G04 APERTURE LIST*
%ADD10C,0.381000*%
%ADD11C,0.200000*%
%ADD12C,0.350000*%
G04 APERTURE END LIST*
D10*
X31902400Y-30467300D02*
X31902400Y-7493000D01*
X12877800Y-30467300D02*
X31902400Y-30467300D01*
X12877800Y-7493000D02*
X12877800Y-30467300D01*
X31902400Y-7493000D02*
X12877800Y-7493000D01*
D11*
D12*
X26901400Y-29670000D02*
X27251400Y-30020000D01*
X27251400Y-29670000D02*
X26901400Y-30020000D01*
X28596800Y-29670000D02*
X28946800Y-30020000D01*
X28946800Y-29670000D02*
X28596800Y-30020000D01*
D11*
X13119527Y-30797834D02*
X13119527Y-30597834D01*
X13119527Y-30597834D02*
X13167146Y-30597834D01*
X13167146Y-30597834D02*
X13195717Y-30607358D01*
X13195717Y-30607358D02*
X13214765Y-30626405D01*
X13214765Y-30626405D02*
X13224289Y-30645453D01*
X13224289Y-30645453D02*
X13233812Y-30683548D01*
X13233812Y-30683548D02*
X13233812Y-30712119D01*
X13233812Y-30712119D02*
X13224289Y-30750215D01*
X13224289Y-30750215D02*
X13214765Y-30769262D01*
X13214765Y-30769262D02*
X13195717Y-30788310D01*
X13195717Y-30788310D02*
X13167146Y-30797834D01*
X13167146Y-30797834D02*
X13119527Y-30797834D01*
X13319527Y-30797834D02*
X13319527Y-30664500D01*
X13319527Y-30702596D02*
X13329051Y-30683548D01*
X13329051Y-30683548D02*
X13338574Y-30674024D01*
X13338574Y-30674024D02*
X13357622Y-30664500D01*
X13357622Y-30664500D02*
X13376670Y-30664500D01*
X13443336Y-30797834D02*
X13443336Y-30664500D01*
X13443336Y-30597834D02*
X13433812Y-30607358D01*
X13433812Y-30607358D02*
X13443336Y-30616881D01*
X13443336Y-30616881D02*
X13452860Y-30607358D01*
X13452860Y-30607358D02*
X13443336Y-30597834D01*
X13443336Y-30597834D02*
X13443336Y-30616881D01*
X13567146Y-30797834D02*
X13548098Y-30788310D01*
X13548098Y-30788310D02*
X13538574Y-30769262D01*
X13538574Y-30769262D02*
X13538574Y-30597834D01*
X13671908Y-30797834D02*
X13652860Y-30788310D01*
X13652860Y-30788310D02*
X13643336Y-30769262D01*
X13643336Y-30769262D02*
X13643336Y-30597834D01*
X13900479Y-30797834D02*
X13900479Y-30597834D01*
X13900479Y-30597834D02*
X13967146Y-30740691D01*
X13967146Y-30740691D02*
X14033812Y-30597834D01*
X14033812Y-30597834D02*
X14033812Y-30797834D01*
X14214765Y-30797834D02*
X14214765Y-30693072D01*
X14214765Y-30693072D02*
X14205241Y-30674024D01*
X14205241Y-30674024D02*
X14186193Y-30664500D01*
X14186193Y-30664500D02*
X14148098Y-30664500D01*
X14148098Y-30664500D02*
X14129051Y-30674024D01*
X14214765Y-30788310D02*
X14195717Y-30797834D01*
X14195717Y-30797834D02*
X14148098Y-30797834D01*
X14148098Y-30797834D02*
X14129051Y-30788310D01*
X14129051Y-30788310D02*
X14119527Y-30769262D01*
X14119527Y-30769262D02*
X14119527Y-30750215D01*
X14119527Y-30750215D02*
X14129051Y-30731167D01*
X14129051Y-30731167D02*
X14148098Y-30721643D01*
X14148098Y-30721643D02*
X14195717Y-30721643D01*
X14195717Y-30721643D02*
X14214765Y-30712119D01*
X14310003Y-30664500D02*
X14310003Y-30864500D01*
X14310003Y-30674024D02*
X14329051Y-30664500D01*
X14329051Y-30664500D02*
X14367146Y-30664500D01*
X14367146Y-30664500D02*
X14386193Y-30674024D01*
X14386193Y-30674024D02*
X14395717Y-30683548D01*
X14395717Y-30683548D02*
X14405241Y-30702596D01*
X14405241Y-30702596D02*
X14405241Y-30759738D01*
X14405241Y-30759738D02*
X14395717Y-30778786D01*
X14395717Y-30778786D02*
X14386193Y-30788310D01*
X14386193Y-30788310D02*
X14367146Y-30797834D01*
X14367146Y-30797834D02*
X14329051Y-30797834D01*
X14329051Y-30797834D02*
X14310003Y-30788310D01*
X14490955Y-30778786D02*
X14500479Y-30788310D01*
X14500479Y-30788310D02*
X14490955Y-30797834D01*
X14490955Y-30797834D02*
X14481432Y-30788310D01*
X14481432Y-30788310D02*
X14490955Y-30778786D01*
X14490955Y-30778786D02*
X14490955Y-30797834D01*
X14490955Y-30674024D02*
X14500479Y-30683548D01*
X14500479Y-30683548D02*
X14490955Y-30693072D01*
X14490955Y-30693072D02*
X14481432Y-30683548D01*
X14481432Y-30683548D02*
X14490955Y-30674024D01*
X14490955Y-30674024D02*
X14490955Y-30693072D01*
X12658750Y-31026350D02*
X12858750Y-31226350D01*
X12858750Y-31026350D02*
X12658750Y-31226350D01*
X13100479Y-31017834D02*
X13224289Y-31017834D01*
X13224289Y-31017834D02*
X13157622Y-31094024D01*
X13157622Y-31094024D02*
X13186193Y-31094024D01*
X13186193Y-31094024D02*
X13205241Y-31103548D01*
X13205241Y-31103548D02*
X13214765Y-31113072D01*
X13214765Y-31113072D02*
X13224289Y-31132119D01*
X13224289Y-31132119D02*
X13224289Y-31179738D01*
X13224289Y-31179738D02*
X13214765Y-31198786D01*
X13214765Y-31198786D02*
X13205241Y-31208310D01*
X13205241Y-31208310D02*
X13186193Y-31217834D01*
X13186193Y-31217834D02*
X13129051Y-31217834D01*
X13129051Y-31217834D02*
X13110003Y-31208310D01*
X13110003Y-31208310D02*
X13100479Y-31198786D01*
X13310003Y-31198786D02*
X13319527Y-31208310D01*
X13319527Y-31208310D02*
X13310003Y-31217834D01*
X13310003Y-31217834D02*
X13300479Y-31208310D01*
X13300479Y-31208310D02*
X13310003Y-31198786D01*
X13310003Y-31198786D02*
X13310003Y-31217834D01*
X13500479Y-31017834D02*
X13405241Y-31017834D01*
X13405241Y-31017834D02*
X13395717Y-31113072D01*
X13395717Y-31113072D02*
X13405241Y-31103548D01*
X13405241Y-31103548D02*
X13424289Y-31094024D01*
X13424289Y-31094024D02*
X13471908Y-31094024D01*
X13471908Y-31094024D02*
X13490955Y-31103548D01*
X13490955Y-31103548D02*
X13500479Y-31113072D01*
X13500479Y-31113072D02*
X13510003Y-31132119D01*
X13510003Y-31132119D02*
X13510003Y-31179738D01*
X13510003Y-31179738D02*
X13500479Y-31198786D01*
X13500479Y-31198786D02*
X13490955Y-31208310D01*
X13490955Y-31208310D02*
X13471908Y-31217834D01*
X13471908Y-31217834D02*
X13424289Y-31217834D01*
X13424289Y-31217834D02*
X13405241Y-31208310D01*
X13405241Y-31208310D02*
X13395717Y-31198786D01*
X13633812Y-31017834D02*
X13652860Y-31017834D01*
X13652860Y-31017834D02*
X13671908Y-31027358D01*
X13671908Y-31027358D02*
X13681432Y-31036881D01*
X13681432Y-31036881D02*
X13690955Y-31055929D01*
X13690955Y-31055929D02*
X13700479Y-31094024D01*
X13700479Y-31094024D02*
X13700479Y-31141643D01*
X13700479Y-31141643D02*
X13690955Y-31179738D01*
X13690955Y-31179738D02*
X13681432Y-31198786D01*
X13681432Y-31198786D02*
X13671908Y-31208310D01*
X13671908Y-31208310D02*
X13652860Y-31217834D01*
X13652860Y-31217834D02*
X13633812Y-31217834D01*
X13633812Y-31217834D02*
X13614765Y-31208310D01*
X13614765Y-31208310D02*
X13605241Y-31198786D01*
X13605241Y-31198786D02*
X13595717Y-31179738D01*
X13595717Y-31179738D02*
X13586193Y-31141643D01*
X13586193Y-31141643D02*
X13586193Y-31094024D01*
X13586193Y-31094024D02*
X13595717Y-31055929D01*
X13595717Y-31055929D02*
X13605241Y-31036881D01*
X13605241Y-31036881D02*
X13614765Y-31027358D01*
X13614765Y-31027358D02*
X13633812Y-31017834D01*
X13824289Y-31017834D02*
X13843336Y-31017834D01*
X13843336Y-31017834D02*
X13862384Y-31027358D01*
X13862384Y-31027358D02*
X13871908Y-31036881D01*
X13871908Y-31036881D02*
X13881432Y-31055929D01*
X13881432Y-31055929D02*
X13890955Y-31094024D01*
X13890955Y-31094024D02*
X13890955Y-31141643D01*
X13890955Y-31141643D02*
X13881432Y-31179738D01*
X13881432Y-31179738D02*
X13871908Y-31198786D01*
X13871908Y-31198786D02*
X13862384Y-31208310D01*
X13862384Y-31208310D02*
X13843336Y-31217834D01*
X13843336Y-31217834D02*
X13824289Y-31217834D01*
X13824289Y-31217834D02*
X13805241Y-31208310D01*
X13805241Y-31208310D02*
X13795717Y-31198786D01*
X13795717Y-31198786D02*
X13786193Y-31179738D01*
X13786193Y-31179738D02*
X13776670Y-31141643D01*
X13776670Y-31141643D02*
X13776670Y-31094024D01*
X13776670Y-31094024D02*
X13786193Y-31055929D01*
X13786193Y-31055929D02*
X13795717Y-31036881D01*
X13795717Y-31036881D02*
X13805241Y-31027358D01*
X13805241Y-31027358D02*
X13824289Y-31017834D01*
X13976670Y-31217834D02*
X13976670Y-31084500D01*
X13976670Y-31103548D02*
X13986193Y-31094024D01*
X13986193Y-31094024D02*
X14005241Y-31084500D01*
X14005241Y-31084500D02*
X14033813Y-31084500D01*
X14033813Y-31084500D02*
X14052860Y-31094024D01*
X14052860Y-31094024D02*
X14062384Y-31113072D01*
X14062384Y-31113072D02*
X14062384Y-31217834D01*
X14062384Y-31113072D02*
X14071908Y-31094024D01*
X14071908Y-31094024D02*
X14090955Y-31084500D01*
X14090955Y-31084500D02*
X14119527Y-31084500D01*
X14119527Y-31084500D02*
X14138574Y-31094024D01*
X14138574Y-31094024D02*
X14148098Y-31113072D01*
X14148098Y-31113072D02*
X14148098Y-31217834D01*
X14243336Y-31217834D02*
X14243336Y-31084500D01*
X14243336Y-31103548D02*
X14252860Y-31094024D01*
X14252860Y-31094024D02*
X14271908Y-31084500D01*
X14271908Y-31084500D02*
X14300479Y-31084500D01*
X14300479Y-31084500D02*
X14319527Y-31094024D01*
X14319527Y-31094024D02*
X14329051Y-31113072D01*
X14329051Y-31113072D02*
X14329051Y-31217834D01*
X14329051Y-31113072D02*
X14338574Y-31094024D01*
X14338574Y-31094024D02*
X14357622Y-31084500D01*
X14357622Y-31084500D02*
X14386193Y-31084500D01*
X14386193Y-31084500D02*
X14405241Y-31094024D01*
X14405241Y-31094024D02*
X14414765Y-31113072D01*
X14414765Y-31113072D02*
X14414765Y-31217834D01*
X14805241Y-31008310D02*
X14633813Y-31265453D01*
X15062384Y-31017834D02*
X15081432Y-31017834D01*
X15081432Y-31017834D02*
X15100479Y-31027358D01*
X15100479Y-31027358D02*
X15110003Y-31036881D01*
X15110003Y-31036881D02*
X15119527Y-31055929D01*
X15119527Y-31055929D02*
X15129051Y-31094024D01*
X15129051Y-31094024D02*
X15129051Y-31141643D01*
X15129051Y-31141643D02*
X15119527Y-31179738D01*
X15119527Y-31179738D02*
X15110003Y-31198786D01*
X15110003Y-31198786D02*
X15100479Y-31208310D01*
X15100479Y-31208310D02*
X15081432Y-31217834D01*
X15081432Y-31217834D02*
X15062384Y-31217834D01*
X15062384Y-31217834D02*
X15043336Y-31208310D01*
X15043336Y-31208310D02*
X15033813Y-31198786D01*
X15033813Y-31198786D02*
X15024289Y-31179738D01*
X15024289Y-31179738D02*
X15014765Y-31141643D01*
X15014765Y-31141643D02*
X15014765Y-31094024D01*
X15014765Y-31094024D02*
X15024289Y-31055929D01*
X15024289Y-31055929D02*
X15033813Y-31036881D01*
X15033813Y-31036881D02*
X15043336Y-31027358D01*
X15043336Y-31027358D02*
X15062384Y-31017834D01*
X15214765Y-31198786D02*
X15224289Y-31208310D01*
X15224289Y-31208310D02*
X15214765Y-31217834D01*
X15214765Y-31217834D02*
X15205241Y-31208310D01*
X15205241Y-31208310D02*
X15214765Y-31198786D01*
X15214765Y-31198786D02*
X15214765Y-31217834D01*
X15414765Y-31217834D02*
X15300479Y-31217834D01*
X15357622Y-31217834D02*
X15357622Y-31017834D01*
X15357622Y-31017834D02*
X15338575Y-31046405D01*
X15338575Y-31046405D02*
X15319527Y-31065453D01*
X15319527Y-31065453D02*
X15300479Y-31074977D01*
X15481432Y-31017834D02*
X15605241Y-31017834D01*
X15605241Y-31017834D02*
X15538575Y-31094024D01*
X15538575Y-31094024D02*
X15567146Y-31094024D01*
X15567146Y-31094024D02*
X15586194Y-31103548D01*
X15586194Y-31103548D02*
X15595717Y-31113072D01*
X15595717Y-31113072D02*
X15605241Y-31132119D01*
X15605241Y-31132119D02*
X15605241Y-31179738D01*
X15605241Y-31179738D02*
X15595717Y-31198786D01*
X15595717Y-31198786D02*
X15586194Y-31208310D01*
X15586194Y-31208310D02*
X15567146Y-31217834D01*
X15567146Y-31217834D02*
X15510003Y-31217834D01*
X15510003Y-31217834D02*
X15490956Y-31208310D01*
X15490956Y-31208310D02*
X15481432Y-31198786D01*
X15671908Y-31017834D02*
X15805241Y-31017834D01*
X15805241Y-31017834D02*
X15719527Y-31217834D01*
X15910003Y-31103548D02*
X15890956Y-31094024D01*
X15890956Y-31094024D02*
X15881432Y-31084500D01*
X15881432Y-31084500D02*
X15871908Y-31065453D01*
X15871908Y-31065453D02*
X15871908Y-31055929D01*
X15871908Y-31055929D02*
X15881432Y-31036881D01*
X15881432Y-31036881D02*
X15890956Y-31027358D01*
X15890956Y-31027358D02*
X15910003Y-31017834D01*
X15910003Y-31017834D02*
X15948098Y-31017834D01*
X15948098Y-31017834D02*
X15967146Y-31027358D01*
X15967146Y-31027358D02*
X15976670Y-31036881D01*
X15976670Y-31036881D02*
X15986194Y-31055929D01*
X15986194Y-31055929D02*
X15986194Y-31065453D01*
X15986194Y-31065453D02*
X15976670Y-31084500D01*
X15976670Y-31084500D02*
X15967146Y-31094024D01*
X15967146Y-31094024D02*
X15948098Y-31103548D01*
X15948098Y-31103548D02*
X15910003Y-31103548D01*
X15910003Y-31103548D02*
X15890956Y-31113072D01*
X15890956Y-31113072D02*
X15881432Y-31122596D01*
X15881432Y-31122596D02*
X15871908Y-31141643D01*
X15871908Y-31141643D02*
X15871908Y-31179738D01*
X15871908Y-31179738D02*
X15881432Y-31198786D01*
X15881432Y-31198786D02*
X15890956Y-31208310D01*
X15890956Y-31208310D02*
X15910003Y-31217834D01*
X15910003Y-31217834D02*
X15948098Y-31217834D01*
X15948098Y-31217834D02*
X15967146Y-31208310D01*
X15967146Y-31208310D02*
X15976670Y-31198786D01*
X15976670Y-31198786D02*
X15986194Y-31179738D01*
X15986194Y-31179738D02*
X15986194Y-31141643D01*
X15986194Y-31141643D02*
X15976670Y-31122596D01*
X15976670Y-31122596D02*
X15967146Y-31113072D01*
X15967146Y-31113072D02*
X15948098Y-31103548D01*
X16062384Y-31017834D02*
X16062384Y-31055929D01*
X16138575Y-31017834D02*
X16138575Y-31055929D01*
X16433813Y-31294024D02*
X16424289Y-31284500D01*
X16424289Y-31284500D02*
X16405241Y-31255929D01*
X16405241Y-31255929D02*
X16395718Y-31236881D01*
X16395718Y-31236881D02*
X16386194Y-31208310D01*
X16386194Y-31208310D02*
X16376670Y-31160691D01*
X16376670Y-31160691D02*
X16376670Y-31122596D01*
X16376670Y-31122596D02*
X16386194Y-31074977D01*
X16386194Y-31074977D02*
X16395718Y-31046405D01*
X16395718Y-31046405D02*
X16405241Y-31027358D01*
X16405241Y-31027358D02*
X16424289Y-30998786D01*
X16424289Y-30998786D02*
X16433813Y-30989262D01*
X16500479Y-31036881D02*
X16510003Y-31027358D01*
X16510003Y-31027358D02*
X16529051Y-31017834D01*
X16529051Y-31017834D02*
X16576670Y-31017834D01*
X16576670Y-31017834D02*
X16595718Y-31027358D01*
X16595718Y-31027358D02*
X16605241Y-31036881D01*
X16605241Y-31036881D02*
X16614765Y-31055929D01*
X16614765Y-31055929D02*
X16614765Y-31074977D01*
X16614765Y-31074977D02*
X16605241Y-31103548D01*
X16605241Y-31103548D02*
X16490956Y-31217834D01*
X16490956Y-31217834D02*
X16614765Y-31217834D01*
X16852861Y-31217834D02*
X16852861Y-31017834D01*
X16938575Y-31217834D02*
X16938575Y-31113072D01*
X16938575Y-31113072D02*
X16929051Y-31094024D01*
X16929051Y-31094024D02*
X16910003Y-31084500D01*
X16910003Y-31084500D02*
X16881432Y-31084500D01*
X16881432Y-31084500D02*
X16862384Y-31094024D01*
X16862384Y-31094024D02*
X16852861Y-31103548D01*
X17062384Y-31217834D02*
X17043337Y-31208310D01*
X17043337Y-31208310D02*
X17033813Y-31198786D01*
X17033813Y-31198786D02*
X17024289Y-31179738D01*
X17024289Y-31179738D02*
X17024289Y-31122596D01*
X17024289Y-31122596D02*
X17033813Y-31103548D01*
X17033813Y-31103548D02*
X17043337Y-31094024D01*
X17043337Y-31094024D02*
X17062384Y-31084500D01*
X17062384Y-31084500D02*
X17090956Y-31084500D01*
X17090956Y-31084500D02*
X17110003Y-31094024D01*
X17110003Y-31094024D02*
X17119527Y-31103548D01*
X17119527Y-31103548D02*
X17129051Y-31122596D01*
X17129051Y-31122596D02*
X17129051Y-31179738D01*
X17129051Y-31179738D02*
X17119527Y-31198786D01*
X17119527Y-31198786D02*
X17110003Y-31208310D01*
X17110003Y-31208310D02*
X17090956Y-31217834D01*
X17090956Y-31217834D02*
X17062384Y-31217834D01*
X17243337Y-31217834D02*
X17224289Y-31208310D01*
X17224289Y-31208310D02*
X17214765Y-31189262D01*
X17214765Y-31189262D02*
X17214765Y-31017834D01*
X17395718Y-31208310D02*
X17376670Y-31217834D01*
X17376670Y-31217834D02*
X17338575Y-31217834D01*
X17338575Y-31217834D02*
X17319527Y-31208310D01*
X17319527Y-31208310D02*
X17310003Y-31189262D01*
X17310003Y-31189262D02*
X17310003Y-31113072D01*
X17310003Y-31113072D02*
X17319527Y-31094024D01*
X17319527Y-31094024D02*
X17338575Y-31084500D01*
X17338575Y-31084500D02*
X17376670Y-31084500D01*
X17376670Y-31084500D02*
X17395718Y-31094024D01*
X17395718Y-31094024D02*
X17405242Y-31113072D01*
X17405242Y-31113072D02*
X17405242Y-31132119D01*
X17405242Y-31132119D02*
X17310003Y-31151167D01*
X17481432Y-31208310D02*
X17500480Y-31217834D01*
X17500480Y-31217834D02*
X17538575Y-31217834D01*
X17538575Y-31217834D02*
X17557623Y-31208310D01*
X17557623Y-31208310D02*
X17567146Y-31189262D01*
X17567146Y-31189262D02*
X17567146Y-31179738D01*
X17567146Y-31179738D02*
X17557623Y-31160691D01*
X17557623Y-31160691D02*
X17538575Y-31151167D01*
X17538575Y-31151167D02*
X17510003Y-31151167D01*
X17510003Y-31151167D02*
X17490956Y-31141643D01*
X17490956Y-31141643D02*
X17481432Y-31122596D01*
X17481432Y-31122596D02*
X17481432Y-31113072D01*
X17481432Y-31113072D02*
X17490956Y-31094024D01*
X17490956Y-31094024D02*
X17510003Y-31084500D01*
X17510003Y-31084500D02*
X17538575Y-31084500D01*
X17538575Y-31084500D02*
X17557623Y-31094024D01*
X17633813Y-31294024D02*
X17643337Y-31284500D01*
X17643337Y-31284500D02*
X17662384Y-31255929D01*
X17662384Y-31255929D02*
X17671908Y-31236881D01*
X17671908Y-31236881D02*
X17681432Y-31208310D01*
X17681432Y-31208310D02*
X17690956Y-31160691D01*
X17690956Y-31160691D02*
X17690956Y-31122596D01*
X17690956Y-31122596D02*
X17681432Y-31074977D01*
X17681432Y-31074977D02*
X17671908Y-31046405D01*
X17671908Y-31046405D02*
X17662384Y-31027358D01*
X17662384Y-31027358D02*
X17643337Y-30998786D01*
X17643337Y-30998786D02*
X17633813Y-30989262D01*
X17995718Y-31294024D02*
X17986194Y-31284500D01*
X17986194Y-31284500D02*
X17967146Y-31255929D01*
X17967146Y-31255929D02*
X17957623Y-31236881D01*
X17957623Y-31236881D02*
X17948099Y-31208310D01*
X17948099Y-31208310D02*
X17938575Y-31160691D01*
X17938575Y-31160691D02*
X17938575Y-31122596D01*
X17938575Y-31122596D02*
X17948099Y-31074977D01*
X17948099Y-31074977D02*
X17957623Y-31046405D01*
X17957623Y-31046405D02*
X17967146Y-31027358D01*
X17967146Y-31027358D02*
X17986194Y-30998786D01*
X17986194Y-30998786D02*
X17995718Y-30989262D01*
X18071908Y-31084500D02*
X18071908Y-31217834D01*
X18071908Y-31103548D02*
X18081432Y-31094024D01*
X18081432Y-31094024D02*
X18100480Y-31084500D01*
X18100480Y-31084500D02*
X18129051Y-31084500D01*
X18129051Y-31084500D02*
X18148099Y-31094024D01*
X18148099Y-31094024D02*
X18157623Y-31113072D01*
X18157623Y-31113072D02*
X18157623Y-31217834D01*
X18281432Y-31217834D02*
X18262384Y-31208310D01*
X18262384Y-31208310D02*
X18252861Y-31198786D01*
X18252861Y-31198786D02*
X18243337Y-31179738D01*
X18243337Y-31179738D02*
X18243337Y-31122596D01*
X18243337Y-31122596D02*
X18252861Y-31103548D01*
X18252861Y-31103548D02*
X18262384Y-31094024D01*
X18262384Y-31094024D02*
X18281432Y-31084500D01*
X18281432Y-31084500D02*
X18310004Y-31084500D01*
X18310004Y-31084500D02*
X18329051Y-31094024D01*
X18329051Y-31094024D02*
X18338575Y-31103548D01*
X18338575Y-31103548D02*
X18348099Y-31122596D01*
X18348099Y-31122596D02*
X18348099Y-31179738D01*
X18348099Y-31179738D02*
X18338575Y-31198786D01*
X18338575Y-31198786D02*
X18329051Y-31208310D01*
X18329051Y-31208310D02*
X18310004Y-31217834D01*
X18310004Y-31217834D02*
X18281432Y-31217834D01*
X18405242Y-31084500D02*
X18481432Y-31084500D01*
X18433813Y-31017834D02*
X18433813Y-31189262D01*
X18433813Y-31189262D02*
X18443337Y-31208310D01*
X18443337Y-31208310D02*
X18462384Y-31217834D01*
X18462384Y-31217834D02*
X18481432Y-31217834D01*
X18700480Y-31084500D02*
X18700480Y-31284500D01*
X18700480Y-31094024D02*
X18719527Y-31084500D01*
X18719527Y-31084500D02*
X18757623Y-31084500D01*
X18757623Y-31084500D02*
X18776670Y-31094024D01*
X18776670Y-31094024D02*
X18786194Y-31103548D01*
X18786194Y-31103548D02*
X18795718Y-31122596D01*
X18795718Y-31122596D02*
X18795718Y-31179738D01*
X18795718Y-31179738D02*
X18786194Y-31198786D01*
X18786194Y-31198786D02*
X18776670Y-31208310D01*
X18776670Y-31208310D02*
X18757623Y-31217834D01*
X18757623Y-31217834D02*
X18719527Y-31217834D01*
X18719527Y-31217834D02*
X18700480Y-31208310D01*
X18910004Y-31217834D02*
X18890956Y-31208310D01*
X18890956Y-31208310D02*
X18881432Y-31189262D01*
X18881432Y-31189262D02*
X18881432Y-31017834D01*
X19071908Y-31217834D02*
X19071908Y-31113072D01*
X19071908Y-31113072D02*
X19062385Y-31094024D01*
X19062385Y-31094024D02*
X19043337Y-31084500D01*
X19043337Y-31084500D02*
X19005242Y-31084500D01*
X19005242Y-31084500D02*
X18986194Y-31094024D01*
X19071908Y-31208310D02*
X19052861Y-31217834D01*
X19052861Y-31217834D02*
X19005242Y-31217834D01*
X19005242Y-31217834D02*
X18986194Y-31208310D01*
X18986194Y-31208310D02*
X18976670Y-31189262D01*
X18976670Y-31189262D02*
X18976670Y-31170215D01*
X18976670Y-31170215D02*
X18986194Y-31151167D01*
X18986194Y-31151167D02*
X19005242Y-31141643D01*
X19005242Y-31141643D02*
X19052861Y-31141643D01*
X19052861Y-31141643D02*
X19071908Y-31132119D01*
X19138575Y-31084500D02*
X19214765Y-31084500D01*
X19167146Y-31017834D02*
X19167146Y-31189262D01*
X19167146Y-31189262D02*
X19176670Y-31208310D01*
X19176670Y-31208310D02*
X19195718Y-31217834D01*
X19195718Y-31217834D02*
X19214765Y-31217834D01*
X19357623Y-31208310D02*
X19338575Y-31217834D01*
X19338575Y-31217834D02*
X19300480Y-31217834D01*
X19300480Y-31217834D02*
X19281432Y-31208310D01*
X19281432Y-31208310D02*
X19271908Y-31189262D01*
X19271908Y-31189262D02*
X19271908Y-31113072D01*
X19271908Y-31113072D02*
X19281432Y-31094024D01*
X19281432Y-31094024D02*
X19300480Y-31084500D01*
X19300480Y-31084500D02*
X19338575Y-31084500D01*
X19338575Y-31084500D02*
X19357623Y-31094024D01*
X19357623Y-31094024D02*
X19367146Y-31113072D01*
X19367146Y-31113072D02*
X19367146Y-31132119D01*
X19367146Y-31132119D02*
X19271908Y-31151167D01*
X19538575Y-31217834D02*
X19538575Y-31017834D01*
X19538575Y-31208310D02*
X19519527Y-31217834D01*
X19519527Y-31217834D02*
X19481432Y-31217834D01*
X19481432Y-31217834D02*
X19462385Y-31208310D01*
X19462385Y-31208310D02*
X19452861Y-31198786D01*
X19452861Y-31198786D02*
X19443337Y-31179738D01*
X19443337Y-31179738D02*
X19443337Y-31122596D01*
X19443337Y-31122596D02*
X19452861Y-31103548D01*
X19452861Y-31103548D02*
X19462385Y-31094024D01*
X19462385Y-31094024D02*
X19481432Y-31084500D01*
X19481432Y-31084500D02*
X19519527Y-31084500D01*
X19519527Y-31084500D02*
X19538575Y-31094024D01*
X19614766Y-31294024D02*
X19624289Y-31284500D01*
X19624289Y-31284500D02*
X19643337Y-31255929D01*
X19643337Y-31255929D02*
X19652861Y-31236881D01*
X19652861Y-31236881D02*
X19662385Y-31208310D01*
X19662385Y-31208310D02*
X19671908Y-31160691D01*
X19671908Y-31160691D02*
X19671908Y-31122596D01*
X19671908Y-31122596D02*
X19662385Y-31074977D01*
X19662385Y-31074977D02*
X19652861Y-31046405D01*
X19652861Y-31046405D02*
X19643337Y-31027358D01*
X19643337Y-31027358D02*
X19624289Y-30998786D01*
X19624289Y-30998786D02*
X19614766Y-30989262D01*
M02*
