%TF.GenerationSoftware,KiCad,Pcbnew,7.0.5*%
%TF.CreationDate,2023-12-12T17:28:09-06:00*%
%TF.ProjectId,S100-Backplane,53313030-2d42-4616-936b-706c616e652e,rev?*%
%TF.SameCoordinates,Original*%
%TF.FileFunction,Soldermask,Top*%
%TF.FilePolarity,Negative*%
%FSLAX46Y46*%
G04 Gerber Fmt 4.6, Leading zero omitted, Abs format (unit mm)*
G04 Created by KiCad (PCBNEW 7.0.5) date 2023-12-12 17:28:09*
%MOMM*%
%LPD*%
G01*
G04 APERTURE LIST*
G04 Aperture macros list*
%AMRoundRect*
0 Rectangle with rounded corners*
0 $1 Rounding radius*
0 $2 $3 $4 $5 $6 $7 $8 $9 X,Y pos of 4 corners*
0 Add a 4 corners polygon primitive as box body*
4,1,4,$2,$3,$4,$5,$6,$7,$8,$9,$2,$3,0*
0 Add four circle primitives for the rounded corners*
1,1,$1+$1,$2,$3*
1,1,$1+$1,$4,$5*
1,1,$1+$1,$6,$7*
1,1,$1+$1,$8,$9*
0 Add four rect primitives between the rounded corners*
20,1,$1+$1,$2,$3,$4,$5,0*
20,1,$1+$1,$4,$5,$6,$7,0*
20,1,$1+$1,$6,$7,$8,$9,0*
20,1,$1+$1,$8,$9,$2,$3,0*%
G04 Aperture macros list end*
%ADD10RoundRect,0.254000X-1.524000X0.889000X-1.524000X-0.889000X1.524000X-0.889000X1.524000X0.889000X0*%
%ADD11O,3.556000X2.286000*%
%ADD12C,6.858000*%
%ADD13RoundRect,0.254000X-1.905000X-3.048000X1.905000X-3.048000X1.905000X3.048000X-1.905000X3.048000X0*%
%ADD14O,4.318000X6.604000*%
%ADD15C,2.159000*%
%ADD16C,2.286000*%
%ADD17RoundRect,0.254000X0.762000X0.762000X-0.762000X0.762000X-0.762000X-0.762000X0.762000X-0.762000X0*%
%ADD18C,2.032000*%
%ADD19RoundRect,0.254000X-0.698500X-0.698500X0.698500X-0.698500X0.698500X0.698500X-0.698500X0.698500X0*%
%ADD20C,1.905000*%
%ADD21RoundRect,0.254000X4.445000X4.445000X-4.445000X4.445000X-4.445000X-4.445000X4.445000X-4.445000X0*%
%ADD22RoundRect,0.254000X0.889000X0.889000X-0.889000X0.889000X-0.889000X-0.889000X0.889000X-0.889000X0*%
%ADD23C,2.540000*%
%ADD24RoundRect,0.254000X0.698500X0.698500X-0.698500X0.698500X-0.698500X-0.698500X0.698500X-0.698500X0*%
%ADD25RoundRect,0.254000X-0.762000X0.762000X-0.762000X-0.762000X0.762000X-0.762000X0.762000X0.762000X0*%
%ADD26RoundRect,0.254000X0.762000X-0.762000X0.762000X0.762000X-0.762000X0.762000X-0.762000X-0.762000X0*%
%ADD27RoundRect,0.254000X-0.762000X-0.762000X0.762000X-0.762000X0.762000X0.762000X-0.762000X0.762000X0*%
%ADD28C,2.608000*%
%ADD29RoundRect,0.254000X-0.850000X-0.850000X0.850000X-0.850000X0.850000X0.850000X-0.850000X0.850000X0*%
%ADD30O,2.208000X2.208000*%
%ADD31RoundRect,0.254000X0.850000X0.850000X-0.850000X0.850000X-0.850000X-0.850000X0.850000X-0.850000X0*%
%ADD32C,2.208000*%
%ADD33RoundRect,0.254000X-0.850000X0.850000X-0.850000X-0.850000X0.850000X-0.850000X0.850000X0.850000X0*%
%ADD34RoundRect,0.254000X-0.650000X-0.650000X0.650000X-0.650000X0.650000X0.650000X-0.650000X0.650000X0*%
%ADD35C,1.808000*%
%ADD36C,1.708000*%
%ADD37O,4.008000X4.008000*%
%ADD38RoundRect,0.254000X-1.000000X0.952500X-1.000000X-0.952500X1.000000X-0.952500X1.000000X0.952500X0*%
%ADD39O,2.508000X2.413000*%
%ADD40C,2.108000*%
%ADD41O,2.108000X2.108000*%
%ADD42RoundRect,0.254000X-0.600000X-0.600000X0.600000X-0.600000X0.600000X0.600000X-0.600000X0.600000X0*%
%ADD43RoundRect,0.254000X1.000000X-0.952500X1.000000X0.952500X-1.000000X0.952500X-1.000000X-0.952500X0*%
%ADD44RoundRect,0.254000X-1.750000X1.750000X-1.750000X-1.750000X1.750000X-1.750000X1.750000X1.750000X0*%
%ADD45RoundRect,1.004000X-1.000000X0.750000X-1.000000X-0.750000X1.000000X-0.750000X1.000000X0.750000X0*%
%ADD46RoundRect,1.129000X-0.875000X0.875000X-0.875000X-0.875000X0.875000X-0.875000X0.875000X0.875000X0*%
%ADD47C,2.008000*%
%TA.AperFunction,Profile*%
%ADD48C,0.381000*%
%TD*%
G04 APERTURE END LIST*
D10*
%TO.C,U31*%
X141851380Y-115882420D03*
D11*
X141851380Y-119057420D03*
X141851380Y-122232420D03*
X141851380Y-125407420D03*
X141851380Y-128582420D03*
X141851380Y-131757420D03*
X141851380Y-134932420D03*
X141851380Y-138107420D03*
X141851380Y-141282420D03*
X141851380Y-144457420D03*
X141851380Y-147632420D03*
X141851380Y-150807420D03*
X141851380Y-153982420D03*
X141851380Y-157157420D03*
X141851380Y-160332420D03*
X141851380Y-163507420D03*
X141851380Y-166682420D03*
X141851380Y-169857420D03*
X141851380Y-173032420D03*
X141851380Y-176207420D03*
X141851380Y-179382420D03*
X141851380Y-182557420D03*
X141851380Y-185732420D03*
X141851380Y-188907420D03*
X141851380Y-192082420D03*
X141851380Y-195257420D03*
X141851380Y-198432420D03*
X141851380Y-201607420D03*
X141851380Y-204782420D03*
X141851380Y-207957420D03*
X141851380Y-211132420D03*
X141851380Y-214307420D03*
X141851380Y-217482420D03*
X141851380Y-220657420D03*
X141851380Y-223832420D03*
X141851380Y-227007420D03*
X141851380Y-230182420D03*
X141851380Y-233357420D03*
X141851380Y-236532420D03*
X141851380Y-239707420D03*
X141851380Y-242882420D03*
X141851380Y-246057420D03*
X141851380Y-249232420D03*
X141851380Y-252407420D03*
X141851380Y-255582420D03*
X141851380Y-258757420D03*
X141851380Y-261932420D03*
X141851380Y-265107420D03*
X141851380Y-268282420D03*
X141851380Y-271457420D03*
X148201380Y-115882420D03*
X148201380Y-119057420D03*
X148201380Y-122232420D03*
X148201380Y-125407420D03*
X148201380Y-128582420D03*
X148201380Y-131757420D03*
X148201380Y-134932420D03*
X148201380Y-138107420D03*
X148201380Y-141282420D03*
X148201380Y-144457420D03*
X148201380Y-147632420D03*
X148201380Y-150807420D03*
X148201380Y-153982420D03*
X148201380Y-157157420D03*
X148201380Y-160332420D03*
X148201380Y-163507420D03*
X148201380Y-166682420D03*
X148201380Y-169857420D03*
X148201380Y-173032420D03*
X148201380Y-176207420D03*
X148201380Y-179382420D03*
X148201380Y-182557420D03*
X148201380Y-185732420D03*
X148201380Y-188907420D03*
X148201380Y-192082420D03*
X148201380Y-195257420D03*
X148201380Y-198432420D03*
X148201380Y-201607420D03*
X148201380Y-204782420D03*
X148201380Y-207957420D03*
X148201380Y-211132420D03*
X148201380Y-214307420D03*
X148201380Y-217482420D03*
X148201380Y-220657420D03*
X148201380Y-223832420D03*
X148201380Y-227007420D03*
X148201380Y-230182420D03*
X148201380Y-233357420D03*
X148201380Y-236532420D03*
X148201380Y-239707420D03*
X148201380Y-242882420D03*
X148201380Y-246057420D03*
X148201380Y-249232420D03*
X148201380Y-252407420D03*
X148201380Y-255582420D03*
X148201380Y-258757420D03*
X148201380Y-261932420D03*
X148201380Y-265107420D03*
X148201380Y-268282420D03*
X148201380Y-271457420D03*
D12*
X145026380Y-107373420D03*
X145026380Y-279966420D03*
%TD*%
D13*
%TO.C,P1*%
X187325000Y-80010000D03*
D14*
X192405000Y-80010000D03*
X197485000Y-80010000D03*
X202565000Y-80010000D03*
X207645000Y-80010000D03*
X212725000Y-80010000D03*
%TD*%
D12*
%TO.C,P9*%
X209550000Y-98298000D03*
%TD*%
D15*
%TO.C,R9*%
X219329000Y-294640000D03*
X209169000Y-294640000D03*
%TD*%
D16*
%TO.C,R1*%
X221869000Y-294640000D03*
X224409000Y-292100000D03*
X226949000Y-294640000D03*
%TD*%
D15*
%TO.C,R10*%
X219329000Y-297180000D03*
X209169000Y-297180000D03*
%TD*%
D17*
%TO.C,C2*%
X224790000Y-300990000D03*
D18*
X222250000Y-300990000D03*
%TD*%
D19*
%TO.C,IC2*%
X230251000Y-302006000D03*
D20*
X232791000Y-302006000D03*
X235331000Y-302006000D03*
X237871000Y-302006000D03*
X237871000Y-294386000D03*
X235331000Y-294386000D03*
X232791000Y-294386000D03*
X230251000Y-294386000D03*
%TD*%
D15*
%TO.C,R4*%
X241427000Y-291846000D03*
X241427000Y-302006000D03*
%TD*%
%TO.C,R5*%
X209169000Y-299720000D03*
X219329000Y-299720000D03*
%TD*%
%TO.C,R3*%
X243713000Y-302006000D03*
X243713000Y-291846000D03*
%TD*%
%TO.C,R2*%
X229108000Y-291719000D03*
X239268000Y-291719000D03*
%TD*%
%TO.C,R7*%
X310515000Y-298450000D03*
X310515000Y-288290000D03*
%TD*%
%TO.C,R6*%
X255778000Y-288544000D03*
X265938000Y-288544000D03*
%TD*%
%TO.C,R8*%
X307975000Y-298450000D03*
X307975000Y-288290000D03*
%TD*%
D17*
%TO.C,C8*%
X316992000Y-112522000D03*
D18*
X314452000Y-112522000D03*
%TD*%
D17*
%TO.C,C7*%
X314960000Y-149225000D03*
D18*
X312420000Y-149225000D03*
%TD*%
D17*
%TO.C,C6*%
X314960000Y-238125000D03*
D18*
X312420000Y-238125000D03*
%TD*%
D21*
%TO.C,IC1*%
X190309500Y-297180000D03*
D22*
X206819500Y-297180000D03*
D23*
X206819500Y-299720000D03*
X206819500Y-294640000D03*
%TD*%
D20*
%TO.C,R16*%
X167640000Y-83820000D03*
X177800000Y-83820000D03*
%TD*%
%TO.C,R15*%
X132715000Y-83820000D03*
X142875000Y-83820000D03*
%TD*%
%TO.C,R18*%
X138366500Y-294894000D03*
X130746500Y-294894000D03*
%TD*%
%TO.C,R17*%
X160020000Y-83820000D03*
X149860000Y-83820000D03*
%TD*%
%TO.C,SW1*%
X138366500Y-302895000D03*
X130746500Y-302895000D03*
X138366500Y-297815000D03*
X130746500Y-297815000D03*
%TD*%
D24*
%TO.C,D1*%
X138430000Y-79375000D03*
D20*
X135890000Y-79375000D03*
%TD*%
D24*
%TO.C,D3*%
X155575000Y-79375000D03*
D20*
X153035000Y-79375000D03*
%TD*%
D24*
%TO.C,D2*%
X173355000Y-79375000D03*
D20*
X170815000Y-79375000D03*
%TD*%
D24*
%TO.C,JP2*%
X160020000Y-121539000D03*
D20*
X157480000Y-121539000D03*
%TD*%
D19*
%TO.C,JP1*%
X160528000Y-176530000D03*
D20*
X163068000Y-176530000D03*
%TD*%
D24*
%TO.C,JP3*%
X157099000Y-175895000D03*
D20*
X154559000Y-175895000D03*
%TD*%
D10*
%TO.C,U32*%
X168269920Y-115882420D03*
D11*
X168269920Y-119057420D03*
X168269920Y-122232420D03*
X168269920Y-125407420D03*
X168269920Y-128582420D03*
X168269920Y-131757420D03*
X168269920Y-134932420D03*
X168269920Y-138107420D03*
X168269920Y-141282420D03*
X168269920Y-144457420D03*
X168269920Y-147632420D03*
X168269920Y-150807420D03*
X168269920Y-153982420D03*
X168269920Y-157157420D03*
X168269920Y-160332420D03*
X168269920Y-163507420D03*
X168269920Y-166682420D03*
X168269920Y-169857420D03*
X168269920Y-173032420D03*
X168269920Y-176207420D03*
X168269920Y-179382420D03*
X168269920Y-182557420D03*
X168269920Y-185732420D03*
X168269920Y-188907420D03*
X168269920Y-192082420D03*
X168269920Y-195257420D03*
X168269920Y-198432420D03*
X168269920Y-201607420D03*
X168269920Y-204782420D03*
X168269920Y-207957420D03*
X168269920Y-211132420D03*
X168269920Y-214307420D03*
X168269920Y-217482420D03*
X168269920Y-220657420D03*
X168269920Y-223832420D03*
X168269920Y-227007420D03*
X168269920Y-230182420D03*
X168269920Y-233357420D03*
X168269920Y-236532420D03*
X168269920Y-239707420D03*
X168269920Y-242882420D03*
X168269920Y-246057420D03*
X168269920Y-249232420D03*
X168269920Y-252407420D03*
X168269920Y-255582420D03*
X168269920Y-258757420D03*
X168269920Y-261932420D03*
X168269920Y-265107420D03*
X168269920Y-268282420D03*
X168269920Y-271457420D03*
X174619920Y-115882420D03*
X174619920Y-119057420D03*
X174619920Y-122232420D03*
X174619920Y-125407420D03*
X174619920Y-128582420D03*
X174619920Y-131757420D03*
X174619920Y-134932420D03*
X174619920Y-138107420D03*
X174619920Y-141282420D03*
X174619920Y-144457420D03*
X174619920Y-147632420D03*
X174619920Y-150807420D03*
X174619920Y-153982420D03*
X174619920Y-157157420D03*
X174619920Y-160332420D03*
X174619920Y-163507420D03*
X174619920Y-166682420D03*
X174619920Y-169857420D03*
X174619920Y-173032420D03*
X174619920Y-176207420D03*
X174619920Y-179382420D03*
X174619920Y-182557420D03*
X174619920Y-185732420D03*
X174619920Y-188907420D03*
X174619920Y-192082420D03*
X174619920Y-195257420D03*
X174619920Y-198432420D03*
X174619920Y-201607420D03*
X174619920Y-204782420D03*
X174619920Y-207957420D03*
X174619920Y-211132420D03*
X174619920Y-214307420D03*
X174619920Y-217482420D03*
X174619920Y-220657420D03*
X174619920Y-223832420D03*
X174619920Y-227007420D03*
X174619920Y-230182420D03*
X174619920Y-233357420D03*
X174619920Y-236532420D03*
X174619920Y-239707420D03*
X174619920Y-242882420D03*
X174619920Y-246057420D03*
X174619920Y-249232420D03*
X174619920Y-252407420D03*
X174619920Y-255582420D03*
X174619920Y-258757420D03*
X174619920Y-261932420D03*
X174619920Y-265107420D03*
X174619920Y-268282420D03*
X174619920Y-271457420D03*
D12*
X171444920Y-107373420D03*
X171444920Y-279966420D03*
%TD*%
D10*
%TO.C,U33*%
X187319920Y-115882420D03*
D11*
X187319920Y-119057420D03*
X187319920Y-122232420D03*
X187319920Y-125407420D03*
X187319920Y-128582420D03*
X187319920Y-131757420D03*
X187319920Y-134932420D03*
X187319920Y-138107420D03*
X187319920Y-141282420D03*
X187319920Y-144457420D03*
X187319920Y-147632420D03*
X187319920Y-150807420D03*
X187319920Y-153982420D03*
X187319920Y-157157420D03*
X187319920Y-160332420D03*
X187319920Y-163507420D03*
X187319920Y-166682420D03*
X187319920Y-169857420D03*
X187319920Y-173032420D03*
X187319920Y-176207420D03*
X187319920Y-179382420D03*
X187319920Y-182557420D03*
X187319920Y-185732420D03*
X187319920Y-188907420D03*
X187319920Y-192082420D03*
X187319920Y-195257420D03*
X187319920Y-198432420D03*
X187319920Y-201607420D03*
X187319920Y-204782420D03*
X187319920Y-207957420D03*
X187319920Y-211132420D03*
X187319920Y-214307420D03*
X187319920Y-217482420D03*
X187319920Y-220657420D03*
X187319920Y-223832420D03*
X187319920Y-227007420D03*
X187319920Y-230182420D03*
X187319920Y-233357420D03*
X187319920Y-236532420D03*
X187319920Y-239707420D03*
X187319920Y-242882420D03*
X187319920Y-246057420D03*
X187319920Y-249232420D03*
X187319920Y-252407420D03*
X187319920Y-255582420D03*
X187319920Y-258757420D03*
X187319920Y-261932420D03*
X187319920Y-265107420D03*
X187319920Y-268282420D03*
X187319920Y-271457420D03*
X193669920Y-115882420D03*
X193669920Y-119057420D03*
X193669920Y-122232420D03*
X193669920Y-125407420D03*
X193669920Y-128582420D03*
X193669920Y-131757420D03*
X193669920Y-134932420D03*
X193669920Y-138107420D03*
X193669920Y-141282420D03*
X193669920Y-144457420D03*
X193669920Y-147632420D03*
X193669920Y-150807420D03*
X193669920Y-153982420D03*
X193669920Y-157157420D03*
X193669920Y-160332420D03*
X193669920Y-163507420D03*
X193669920Y-166682420D03*
X193669920Y-169857420D03*
X193669920Y-173032420D03*
X193669920Y-176207420D03*
X193669920Y-179382420D03*
X193669920Y-182557420D03*
X193669920Y-185732420D03*
X193669920Y-188907420D03*
X193669920Y-192082420D03*
X193669920Y-195257420D03*
X193669920Y-198432420D03*
X193669920Y-201607420D03*
X193669920Y-204782420D03*
X193669920Y-207957420D03*
X193669920Y-211132420D03*
X193669920Y-214307420D03*
X193669920Y-217482420D03*
X193669920Y-220657420D03*
X193669920Y-223832420D03*
X193669920Y-227007420D03*
X193669920Y-230182420D03*
X193669920Y-233357420D03*
X193669920Y-236532420D03*
X193669920Y-239707420D03*
X193669920Y-242882420D03*
X193669920Y-246057420D03*
X193669920Y-249232420D03*
X193669920Y-252407420D03*
X193669920Y-255582420D03*
X193669920Y-258757420D03*
X193669920Y-261932420D03*
X193669920Y-265107420D03*
X193669920Y-268282420D03*
X193669920Y-271457420D03*
D12*
X190494920Y-107373420D03*
X190494920Y-279966420D03*
%TD*%
D10*
%TO.C,U35*%
X225419920Y-115882420D03*
D11*
X225419920Y-119057420D03*
X225419920Y-122232420D03*
X225419920Y-125407420D03*
X225419920Y-128582420D03*
X225419920Y-131757420D03*
X225419920Y-134932420D03*
X225419920Y-138107420D03*
X225419920Y-141282420D03*
X225419920Y-144457420D03*
X225419920Y-147632420D03*
X225419920Y-150807420D03*
X225419920Y-153982420D03*
X225419920Y-157157420D03*
X225419920Y-160332420D03*
X225419920Y-163507420D03*
X225419920Y-166682420D03*
X225419920Y-169857420D03*
X225419920Y-173032420D03*
X225419920Y-176207420D03*
X225419920Y-179382420D03*
X225419920Y-182557420D03*
X225419920Y-185732420D03*
X225419920Y-188907420D03*
X225419920Y-192082420D03*
X225419920Y-195257420D03*
X225419920Y-198432420D03*
X225419920Y-201607420D03*
X225419920Y-204782420D03*
X225419920Y-207957420D03*
X225419920Y-211132420D03*
X225419920Y-214307420D03*
X225419920Y-217482420D03*
X225419920Y-220657420D03*
X225419920Y-223832420D03*
X225419920Y-227007420D03*
X225419920Y-230182420D03*
X225419920Y-233357420D03*
X225419920Y-236532420D03*
X225419920Y-239707420D03*
X225419920Y-242882420D03*
X225419920Y-246057420D03*
X225419920Y-249232420D03*
X225419920Y-252407420D03*
X225419920Y-255582420D03*
X225419920Y-258757420D03*
X225419920Y-261932420D03*
X225419920Y-265107420D03*
X225419920Y-268282420D03*
X225419920Y-271457420D03*
X231769920Y-115882420D03*
X231769920Y-119057420D03*
X231769920Y-122232420D03*
X231769920Y-125407420D03*
X231769920Y-128582420D03*
X231769920Y-131757420D03*
X231769920Y-134932420D03*
X231769920Y-138107420D03*
X231769920Y-141282420D03*
X231769920Y-144457420D03*
X231769920Y-147632420D03*
X231769920Y-150807420D03*
X231769920Y-153982420D03*
X231769920Y-157157420D03*
X231769920Y-160332420D03*
X231769920Y-163507420D03*
X231769920Y-166682420D03*
X231769920Y-169857420D03*
X231769920Y-173032420D03*
X231769920Y-176207420D03*
X231769920Y-179382420D03*
X231769920Y-182557420D03*
X231769920Y-185732420D03*
X231769920Y-188907420D03*
X231769920Y-192082420D03*
X231769920Y-195257420D03*
X231769920Y-198432420D03*
X231769920Y-201607420D03*
X231769920Y-204782420D03*
X231769920Y-207957420D03*
X231769920Y-211132420D03*
X231769920Y-214307420D03*
X231769920Y-217482420D03*
X231769920Y-220657420D03*
X231769920Y-223832420D03*
X231769920Y-227007420D03*
X231769920Y-230182420D03*
X231769920Y-233357420D03*
X231769920Y-236532420D03*
X231769920Y-239707420D03*
X231769920Y-242882420D03*
X231769920Y-246057420D03*
X231769920Y-249232420D03*
X231769920Y-252407420D03*
X231769920Y-255582420D03*
X231769920Y-258757420D03*
X231769920Y-261932420D03*
X231769920Y-265107420D03*
X231769920Y-268282420D03*
X231769920Y-271457420D03*
D12*
X228594920Y-107373420D03*
X228594920Y-279966420D03*
%TD*%
D10*
%TO.C,U34*%
X206369920Y-115882420D03*
D11*
X206369920Y-119057420D03*
X206369920Y-122232420D03*
X206369920Y-125407420D03*
X206369920Y-128582420D03*
X206369920Y-131757420D03*
X206369920Y-134932420D03*
X206369920Y-138107420D03*
X206369920Y-141282420D03*
X206369920Y-144457420D03*
X206369920Y-147632420D03*
X206369920Y-150807420D03*
X206369920Y-153982420D03*
X206369920Y-157157420D03*
X206369920Y-160332420D03*
X206369920Y-163507420D03*
X206369920Y-166682420D03*
X206369920Y-169857420D03*
X206369920Y-173032420D03*
X206369920Y-176207420D03*
X206369920Y-179382420D03*
X206369920Y-182557420D03*
X206369920Y-185732420D03*
X206369920Y-188907420D03*
X206369920Y-192082420D03*
X206369920Y-195257420D03*
X206369920Y-198432420D03*
X206369920Y-201607420D03*
X206369920Y-204782420D03*
X206369920Y-207957420D03*
X206369920Y-211132420D03*
X206369920Y-214307420D03*
X206369920Y-217482420D03*
X206369920Y-220657420D03*
X206369920Y-223832420D03*
X206369920Y-227007420D03*
X206369920Y-230182420D03*
X206369920Y-233357420D03*
X206369920Y-236532420D03*
X206369920Y-239707420D03*
X206369920Y-242882420D03*
X206369920Y-246057420D03*
X206369920Y-249232420D03*
X206369920Y-252407420D03*
X206369920Y-255582420D03*
X206369920Y-258757420D03*
X206369920Y-261932420D03*
X206369920Y-265107420D03*
X206369920Y-268282420D03*
X206369920Y-271457420D03*
X212719920Y-115882420D03*
X212719920Y-119057420D03*
X212719920Y-122232420D03*
X212719920Y-125407420D03*
X212719920Y-128582420D03*
X212719920Y-131757420D03*
X212719920Y-134932420D03*
X212719920Y-138107420D03*
X212719920Y-141282420D03*
X212719920Y-144457420D03*
X212719920Y-147632420D03*
X212719920Y-150807420D03*
X212719920Y-153982420D03*
X212719920Y-157157420D03*
X212719920Y-160332420D03*
X212719920Y-163507420D03*
X212719920Y-166682420D03*
X212719920Y-169857420D03*
X212719920Y-173032420D03*
X212719920Y-176207420D03*
X212719920Y-179382420D03*
X212719920Y-182557420D03*
X212719920Y-185732420D03*
X212719920Y-188907420D03*
X212719920Y-192082420D03*
X212719920Y-195257420D03*
X212719920Y-198432420D03*
X212719920Y-201607420D03*
X212719920Y-204782420D03*
X212719920Y-207957420D03*
X212719920Y-211132420D03*
X212719920Y-214307420D03*
X212719920Y-217482420D03*
X212719920Y-220657420D03*
X212719920Y-223832420D03*
X212719920Y-227007420D03*
X212719920Y-230182420D03*
X212719920Y-233357420D03*
X212719920Y-236532420D03*
X212719920Y-239707420D03*
X212719920Y-242882420D03*
X212719920Y-246057420D03*
X212719920Y-249232420D03*
X212719920Y-252407420D03*
X212719920Y-255582420D03*
X212719920Y-258757420D03*
X212719920Y-261932420D03*
X212719920Y-265107420D03*
X212719920Y-268282420D03*
X212719920Y-271457420D03*
D12*
X209544920Y-107373420D03*
X209544920Y-279966420D03*
%TD*%
D10*
%TO.C,U38*%
X282569920Y-115882420D03*
D11*
X282569920Y-119057420D03*
X282569920Y-122232420D03*
X282569920Y-125407420D03*
X282569920Y-128582420D03*
X282569920Y-131757420D03*
X282569920Y-134932420D03*
X282569920Y-138107420D03*
X282569920Y-141282420D03*
X282569920Y-144457420D03*
X282569920Y-147632420D03*
X282569920Y-150807420D03*
X282569920Y-153982420D03*
X282569920Y-157157420D03*
X282569920Y-160332420D03*
X282569920Y-163507420D03*
X282569920Y-166682420D03*
X282569920Y-169857420D03*
X282569920Y-173032420D03*
X282569920Y-176207420D03*
X282569920Y-179382420D03*
X282569920Y-182557420D03*
X282569920Y-185732420D03*
X282569920Y-188907420D03*
X282569920Y-192082420D03*
X282569920Y-195257420D03*
X282569920Y-198432420D03*
X282569920Y-201607420D03*
X282569920Y-204782420D03*
X282569920Y-207957420D03*
X282569920Y-211132420D03*
X282569920Y-214307420D03*
X282569920Y-217482420D03*
X282569920Y-220657420D03*
X282569920Y-223832420D03*
X282569920Y-227007420D03*
X282569920Y-230182420D03*
X282569920Y-233357420D03*
X282569920Y-236532420D03*
X282569920Y-239707420D03*
X282569920Y-242882420D03*
X282569920Y-246057420D03*
X282569920Y-249232420D03*
X282569920Y-252407420D03*
X282569920Y-255582420D03*
X282569920Y-258757420D03*
X282569920Y-261932420D03*
X282569920Y-265107420D03*
X282569920Y-268282420D03*
X282569920Y-271457420D03*
X288919920Y-115882420D03*
X288919920Y-119057420D03*
X288919920Y-122232420D03*
X288919920Y-125407420D03*
X288919920Y-128582420D03*
X288919920Y-131757420D03*
X288919920Y-134932420D03*
X288919920Y-138107420D03*
X288919920Y-141282420D03*
X288919920Y-144457420D03*
X288919920Y-147632420D03*
X288919920Y-150807420D03*
X288919920Y-153982420D03*
X288919920Y-157157420D03*
X288919920Y-160332420D03*
X288919920Y-163507420D03*
X288919920Y-166682420D03*
X288919920Y-169857420D03*
X288919920Y-173032420D03*
X288919920Y-176207420D03*
X288919920Y-179382420D03*
X288919920Y-182557420D03*
X288919920Y-185732420D03*
X288919920Y-188907420D03*
X288919920Y-192082420D03*
X288919920Y-195257420D03*
X288919920Y-198432420D03*
X288919920Y-201607420D03*
X288919920Y-204782420D03*
X288919920Y-207957420D03*
X288919920Y-211132420D03*
X288919920Y-214307420D03*
X288919920Y-217482420D03*
X288919920Y-220657420D03*
X288919920Y-223832420D03*
X288919920Y-227007420D03*
X288919920Y-230182420D03*
X288919920Y-233357420D03*
X288919920Y-236532420D03*
X288919920Y-239707420D03*
X288919920Y-242882420D03*
X288919920Y-246057420D03*
X288919920Y-249232420D03*
X288919920Y-252407420D03*
X288919920Y-255582420D03*
X288919920Y-258757420D03*
X288919920Y-261932420D03*
X288919920Y-265107420D03*
X288919920Y-268282420D03*
X288919920Y-271457420D03*
D12*
X285744920Y-107373420D03*
X285744920Y-279966420D03*
%TD*%
D10*
%TO.C,U39*%
X301619920Y-115882420D03*
D11*
X301619920Y-119057420D03*
X301619920Y-122232420D03*
X301619920Y-125407420D03*
X301619920Y-128582420D03*
X301619920Y-131757420D03*
X301619920Y-134932420D03*
X301619920Y-138107420D03*
X301619920Y-141282420D03*
X301619920Y-144457420D03*
X301619920Y-147632420D03*
X301619920Y-150807420D03*
X301619920Y-153982420D03*
X301619920Y-157157420D03*
X301619920Y-160332420D03*
X301619920Y-163507420D03*
X301619920Y-166682420D03*
X301619920Y-169857420D03*
X301619920Y-173032420D03*
X301619920Y-176207420D03*
X301619920Y-179382420D03*
X301619920Y-182557420D03*
X301619920Y-185732420D03*
X301619920Y-188907420D03*
X301619920Y-192082420D03*
X301619920Y-195257420D03*
X301619920Y-198432420D03*
X301619920Y-201607420D03*
X301619920Y-204782420D03*
X301619920Y-207957420D03*
X301619920Y-211132420D03*
X301619920Y-214307420D03*
X301619920Y-217482420D03*
X301619920Y-220657420D03*
X301619920Y-223832420D03*
X301619920Y-227007420D03*
X301619920Y-230182420D03*
X301619920Y-233357420D03*
X301619920Y-236532420D03*
X301619920Y-239707420D03*
X301619920Y-242882420D03*
X301619920Y-246057420D03*
X301619920Y-249232420D03*
X301619920Y-252407420D03*
X301619920Y-255582420D03*
X301619920Y-258757420D03*
X301619920Y-261932420D03*
X301619920Y-265107420D03*
X301619920Y-268282420D03*
X301619920Y-271457420D03*
X307969920Y-115882420D03*
X307969920Y-119057420D03*
X307969920Y-122232420D03*
X307969920Y-125407420D03*
X307969920Y-128582420D03*
X307969920Y-131757420D03*
X307969920Y-134932420D03*
X307969920Y-138107420D03*
X307969920Y-141282420D03*
X307969920Y-144457420D03*
X307969920Y-147632420D03*
X307969920Y-150807420D03*
X307969920Y-153982420D03*
X307969920Y-157157420D03*
X307969920Y-160332420D03*
X307969920Y-163507420D03*
X307969920Y-166682420D03*
X307969920Y-169857420D03*
X307969920Y-173032420D03*
X307969920Y-176207420D03*
X307969920Y-179382420D03*
X307969920Y-182557420D03*
X307969920Y-185732420D03*
X307969920Y-188907420D03*
X307969920Y-192082420D03*
X307969920Y-195257420D03*
X307969920Y-198432420D03*
X307969920Y-201607420D03*
X307969920Y-204782420D03*
X307969920Y-207957420D03*
X307969920Y-211132420D03*
X307969920Y-214307420D03*
X307969920Y-217482420D03*
X307969920Y-220657420D03*
X307969920Y-223832420D03*
X307969920Y-227007420D03*
X307969920Y-230182420D03*
X307969920Y-233357420D03*
X307969920Y-236532420D03*
X307969920Y-239707420D03*
X307969920Y-242882420D03*
X307969920Y-246057420D03*
X307969920Y-249232420D03*
X307969920Y-252407420D03*
X307969920Y-255582420D03*
X307969920Y-258757420D03*
X307969920Y-261932420D03*
X307969920Y-265107420D03*
X307969920Y-268282420D03*
X307969920Y-271457420D03*
D12*
X304794920Y-107373420D03*
X304794920Y-279966420D03*
%TD*%
D10*
%TO.C,U37*%
X263519920Y-115882420D03*
D11*
X263519920Y-119057420D03*
X263519920Y-122232420D03*
X263519920Y-125407420D03*
X263519920Y-128582420D03*
X263519920Y-131757420D03*
X263519920Y-134932420D03*
X263519920Y-138107420D03*
X263519920Y-141282420D03*
X263519920Y-144457420D03*
X263519920Y-147632420D03*
X263519920Y-150807420D03*
X263519920Y-153982420D03*
X263519920Y-157157420D03*
X263519920Y-160332420D03*
X263519920Y-163507420D03*
X263519920Y-166682420D03*
X263519920Y-169857420D03*
X263519920Y-173032420D03*
X263519920Y-176207420D03*
X263519920Y-179382420D03*
X263519920Y-182557420D03*
X263519920Y-185732420D03*
X263519920Y-188907420D03*
X263519920Y-192082420D03*
X263519920Y-195257420D03*
X263519920Y-198432420D03*
X263519920Y-201607420D03*
X263519920Y-204782420D03*
X263519920Y-207957420D03*
X263519920Y-211132420D03*
X263519920Y-214307420D03*
X263519920Y-217482420D03*
X263519920Y-220657420D03*
X263519920Y-223832420D03*
X263519920Y-227007420D03*
X263519920Y-230182420D03*
X263519920Y-233357420D03*
X263519920Y-236532420D03*
X263519920Y-239707420D03*
X263519920Y-242882420D03*
X263519920Y-246057420D03*
X263519920Y-249232420D03*
X263519920Y-252407420D03*
X263519920Y-255582420D03*
X263519920Y-258757420D03*
X263519920Y-261932420D03*
X263519920Y-265107420D03*
X263519920Y-268282420D03*
X263519920Y-271457420D03*
X269869920Y-115882420D03*
X269869920Y-119057420D03*
X269869920Y-122232420D03*
X269869920Y-125407420D03*
X269869920Y-128582420D03*
X269869920Y-131757420D03*
X269869920Y-134932420D03*
X269869920Y-138107420D03*
X269869920Y-141282420D03*
X269869920Y-144457420D03*
X269869920Y-147632420D03*
X269869920Y-150807420D03*
X269869920Y-153982420D03*
X269869920Y-157157420D03*
X269869920Y-160332420D03*
X269869920Y-163507420D03*
X269869920Y-166682420D03*
X269869920Y-169857420D03*
X269869920Y-173032420D03*
X269869920Y-176207420D03*
X269869920Y-179382420D03*
X269869920Y-182557420D03*
X269869920Y-185732420D03*
X269869920Y-188907420D03*
X269869920Y-192082420D03*
X269869920Y-195257420D03*
X269869920Y-198432420D03*
X269869920Y-201607420D03*
X269869920Y-204782420D03*
X269869920Y-207957420D03*
X269869920Y-211132420D03*
X269869920Y-214307420D03*
X269869920Y-217482420D03*
X269869920Y-220657420D03*
X269869920Y-223832420D03*
X269869920Y-227007420D03*
X269869920Y-230182420D03*
X269869920Y-233357420D03*
X269869920Y-236532420D03*
X269869920Y-239707420D03*
X269869920Y-242882420D03*
X269869920Y-246057420D03*
X269869920Y-249232420D03*
X269869920Y-252407420D03*
X269869920Y-255582420D03*
X269869920Y-258757420D03*
X269869920Y-261932420D03*
X269869920Y-265107420D03*
X269869920Y-268282420D03*
X269869920Y-271457420D03*
D12*
X266694920Y-107373420D03*
X266694920Y-279966420D03*
%TD*%
D10*
%TO.C,U36*%
X244469920Y-115882420D03*
D11*
X244469920Y-119057420D03*
X244469920Y-122232420D03*
X244469920Y-125407420D03*
X244469920Y-128582420D03*
X244469920Y-131757420D03*
X244469920Y-134932420D03*
X244469920Y-138107420D03*
X244469920Y-141282420D03*
X244469920Y-144457420D03*
X244469920Y-147632420D03*
X244469920Y-150807420D03*
X244469920Y-153982420D03*
X244469920Y-157157420D03*
X244469920Y-160332420D03*
X244469920Y-163507420D03*
X244469920Y-166682420D03*
X244469920Y-169857420D03*
X244469920Y-173032420D03*
X244469920Y-176207420D03*
X244469920Y-179382420D03*
X244469920Y-182557420D03*
X244469920Y-185732420D03*
X244469920Y-188907420D03*
X244469920Y-192082420D03*
X244469920Y-195257420D03*
X244469920Y-198432420D03*
X244469920Y-201607420D03*
X244469920Y-204782420D03*
X244469920Y-207957420D03*
X244469920Y-211132420D03*
X244469920Y-214307420D03*
X244469920Y-217482420D03*
X244469920Y-220657420D03*
X244469920Y-223832420D03*
X244469920Y-227007420D03*
X244469920Y-230182420D03*
X244469920Y-233357420D03*
X244469920Y-236532420D03*
X244469920Y-239707420D03*
X244469920Y-242882420D03*
X244469920Y-246057420D03*
X244469920Y-249232420D03*
X244469920Y-252407420D03*
X244469920Y-255582420D03*
X244469920Y-258757420D03*
X244469920Y-261932420D03*
X244469920Y-265107420D03*
X244469920Y-268282420D03*
X244469920Y-271457420D03*
X250819920Y-115882420D03*
X250819920Y-119057420D03*
X250819920Y-122232420D03*
X250819920Y-125407420D03*
X250819920Y-128582420D03*
X250819920Y-131757420D03*
X250819920Y-134932420D03*
X250819920Y-138107420D03*
X250819920Y-141282420D03*
X250819920Y-144457420D03*
X250819920Y-147632420D03*
X250819920Y-150807420D03*
X250819920Y-153982420D03*
X250819920Y-157157420D03*
X250819920Y-160332420D03*
X250819920Y-163507420D03*
X250819920Y-166682420D03*
X250819920Y-169857420D03*
X250819920Y-173032420D03*
X250819920Y-176207420D03*
X250819920Y-179382420D03*
X250819920Y-182557420D03*
X250819920Y-185732420D03*
X250819920Y-188907420D03*
X250819920Y-192082420D03*
X250819920Y-195257420D03*
X250819920Y-198432420D03*
X250819920Y-201607420D03*
X250819920Y-204782420D03*
X250819920Y-207957420D03*
X250819920Y-211132420D03*
X250819920Y-214307420D03*
X250819920Y-217482420D03*
X250819920Y-220657420D03*
X250819920Y-223832420D03*
X250819920Y-227007420D03*
X250819920Y-230182420D03*
X250819920Y-233357420D03*
X250819920Y-236532420D03*
X250819920Y-239707420D03*
X250819920Y-242882420D03*
X250819920Y-246057420D03*
X250819920Y-249232420D03*
X250819920Y-252407420D03*
X250819920Y-255582420D03*
X250819920Y-258757420D03*
X250819920Y-261932420D03*
X250819920Y-265107420D03*
X250819920Y-268282420D03*
X250819920Y-271457420D03*
D12*
X247644920Y-107373420D03*
X247644920Y-279966420D03*
%TD*%
%TO.C,P9*%
X144653000Y-98679000D03*
%TD*%
%TO.C,P9*%
X247650000Y-98298000D03*
%TD*%
%TO.C,P9*%
X285750000Y-98298000D03*
%TD*%
%TO.C,P9*%
X171450000Y-98298000D03*
%TD*%
%TO.C,P9*%
X209550000Y-288798000D03*
%TD*%
%TO.C,P9*%
X247650000Y-288798000D03*
%TD*%
%TO.C,P9*%
X285750000Y-288798000D03*
%TD*%
%TO.C,P9*%
X145034000Y-288798000D03*
%TD*%
%TO.C,P9*%
X171450000Y-288798000D03*
%TD*%
D25*
%TO.C,C3*%
X247904000Y-296291000D03*
D18*
X247904000Y-298831000D03*
%TD*%
D26*
%TO.C,C1*%
X180975000Y-302641000D03*
D18*
X180975000Y-300101000D03*
%TD*%
D27*
%TO.C,C4*%
X271272000Y-288544000D03*
D18*
X273812000Y-288544000D03*
%TD*%
D17*
%TO.C,C5*%
X315595000Y-271145000D03*
D18*
X313055000Y-271145000D03*
%TD*%
D20*
%TO.C,F2*%
X177165000Y-92710000D03*
X187325000Y-92710000D03*
%TD*%
%TO.C,F3*%
X213995000Y-92710000D03*
X203835000Y-92710000D03*
%TD*%
%TO.C,F1*%
X190500000Y-92710000D03*
X200660000Y-92710000D03*
%TD*%
D28*
%TO.C,IC3*%
X243708000Y-92715000D03*
X250058000Y-92715000D03*
X253238000Y-92715000D03*
X253238000Y-76835000D03*
X243708000Y-76835000D03*
%TD*%
D29*
%TO.C,P2*%
X132080000Y-116840000D03*
D30*
X134620000Y-116840000D03*
X132080000Y-119380000D03*
X134620000Y-119380000D03*
X132080000Y-121920000D03*
X134620000Y-121920000D03*
X132080000Y-124460000D03*
X134620000Y-124460000D03*
X132080000Y-127000000D03*
X134620000Y-127000000D03*
X132080000Y-129540000D03*
X134620000Y-129540000D03*
X132080000Y-132080000D03*
X134620000Y-132080000D03*
X132080000Y-134620000D03*
X134620000Y-134620000D03*
X132080000Y-137160000D03*
X134620000Y-137160000D03*
X132080000Y-139700000D03*
X134620000Y-139700000D03*
X132080000Y-142240000D03*
X134620000Y-142240000D03*
X132080000Y-144780000D03*
X134620000Y-144780000D03*
X132080000Y-147320000D03*
X134620000Y-147320000D03*
%TD*%
D29*
%TO.C,RR10*%
X315976000Y-243205000D03*
D30*
X315976000Y-245745000D03*
X315976000Y-248285000D03*
X315976000Y-250825000D03*
X315976000Y-253365000D03*
X315976000Y-255905000D03*
X315976000Y-258445000D03*
X315976000Y-260985000D03*
X315976000Y-263525000D03*
X315976000Y-266065000D03*
%TD*%
D20*
%TO.C,R12*%
X315595000Y-288290000D03*
X315595000Y-298450000D03*
%TD*%
D29*
%TO.C,RR2*%
X312420000Y-155575000D03*
D30*
X312420000Y-158115000D03*
X312420000Y-160655000D03*
X312420000Y-163195000D03*
X312420000Y-165735000D03*
X312420000Y-168275000D03*
X312420000Y-170815000D03*
X312420000Y-173355000D03*
X312420000Y-175895000D03*
X312420000Y-178435000D03*
%TD*%
D29*
%TO.C,RR4*%
X312420000Y-210185000D03*
D30*
X312420000Y-212725000D03*
X312420000Y-215265000D03*
X312420000Y-217805000D03*
X312420000Y-220345000D03*
X312420000Y-222885000D03*
X312420000Y-225425000D03*
X312420000Y-227965000D03*
X312420000Y-230505000D03*
X312420000Y-233045000D03*
%TD*%
D20*
%TO.C,R13*%
X315595000Y-275590000D03*
X315595000Y-285750000D03*
%TD*%
D31*
%TO.C,K1*%
X167132000Y-300482000D03*
D30*
X167132000Y-297942000D03*
X167132000Y-295402000D03*
%TD*%
D20*
%TO.C,R20*%
X284226000Y-77724000D03*
X284226000Y-87884000D03*
%TD*%
D29*
%TO.C,P3*%
X132080000Y-157480000D03*
D30*
X134620000Y-157480000D03*
X132080000Y-160020000D03*
X134620000Y-160020000D03*
X132080000Y-162560000D03*
X134620000Y-162560000D03*
X132080000Y-165100000D03*
X134620000Y-165100000D03*
X132080000Y-167640000D03*
X134620000Y-167640000D03*
X132080000Y-170180000D03*
X134620000Y-170180000D03*
X132080000Y-172720000D03*
X134620000Y-172720000D03*
X132080000Y-175260000D03*
X134620000Y-175260000D03*
X132080000Y-177800000D03*
X134620000Y-177800000D03*
X132080000Y-180340000D03*
X134620000Y-180340000D03*
X132080000Y-182880000D03*
X134620000Y-182880000D03*
X132080000Y-185420000D03*
X134620000Y-185420000D03*
X132080000Y-187960000D03*
X134620000Y-187960000D03*
%TD*%
D29*
%TO.C,RR5*%
X312420000Y-243205000D03*
D30*
X312420000Y-245745000D03*
X312420000Y-248285000D03*
X312420000Y-250825000D03*
X312420000Y-253365000D03*
X312420000Y-255905000D03*
X312420000Y-258445000D03*
X312420000Y-260985000D03*
X312420000Y-263525000D03*
X312420000Y-266065000D03*
%TD*%
D32*
%TO.C,IC5*%
X222250000Y-97028000D03*
D30*
X222250000Y-99568000D03*
D33*
X224790000Y-97028000D03*
X224790000Y-99568000D03*
X227330000Y-97028000D03*
X227330000Y-99568000D03*
D30*
X229870000Y-97028000D03*
X229870000Y-99568000D03*
X232410000Y-97028000D03*
X232410000Y-99568000D03*
X234950000Y-97028000D03*
X234950000Y-99568000D03*
%TD*%
D29*
%TO.C,RR7*%
X315976000Y-155575000D03*
D30*
X315976000Y-158115000D03*
X315976000Y-160655000D03*
X315976000Y-163195000D03*
X315976000Y-165735000D03*
X315976000Y-168275000D03*
X315976000Y-170815000D03*
X315976000Y-173355000D03*
X315976000Y-175895000D03*
X315976000Y-178435000D03*
%TD*%
D20*
%TO.C,R14*%
X313055000Y-288290000D03*
X313055000Y-298450000D03*
%TD*%
%TO.C,R11*%
X313055000Y-275590000D03*
X313055000Y-285750000D03*
%TD*%
D34*
%TO.C,Q1*%
X277622000Y-298196000D03*
D35*
X278892000Y-296926000D03*
X280162000Y-298196000D03*
%TD*%
D36*
%TO.C,C10*%
X258445000Y-93385000D03*
X258445000Y-98385000D03*
%TD*%
D29*
%TO.C,P5*%
X132080000Y-238760000D03*
D30*
X134620000Y-238760000D03*
X132080000Y-241300000D03*
X134620000Y-241300000D03*
X132080000Y-243840000D03*
X134620000Y-243840000D03*
X132080000Y-246380000D03*
X134620000Y-246380000D03*
X132080000Y-248920000D03*
X134620000Y-248920000D03*
X132080000Y-251460000D03*
X134620000Y-251460000D03*
X132080000Y-254000000D03*
X134620000Y-254000000D03*
X132080000Y-256540000D03*
X134620000Y-256540000D03*
X132080000Y-259080000D03*
X134620000Y-259080000D03*
X132080000Y-261620000D03*
X134620000Y-261620000D03*
X132080000Y-264160000D03*
X134620000Y-264160000D03*
X132080000Y-266700000D03*
X134620000Y-266700000D03*
X132080000Y-269240000D03*
X134620000Y-269240000D03*
%TD*%
D29*
%TO.C,RR8*%
X315595000Y-182885000D03*
D30*
X315595000Y-185425000D03*
X315595000Y-187965000D03*
X315595000Y-190505000D03*
X315595000Y-193045000D03*
X315595000Y-195585000D03*
X315595000Y-198125000D03*
X315595000Y-200665000D03*
X315595000Y-203205000D03*
X315595000Y-205745000D03*
%TD*%
D29*
%TO.C,RR3*%
X312420000Y-182885000D03*
D30*
X312420000Y-185425000D03*
X312420000Y-187965000D03*
X312420000Y-190505000D03*
X312420000Y-193045000D03*
X312420000Y-195585000D03*
X312420000Y-198125000D03*
X312420000Y-200665000D03*
X312420000Y-203205000D03*
X312420000Y-205745000D03*
%TD*%
D37*
%TO.C,Q3*%
X270764000Y-298450000D03*
D38*
X254104000Y-295910000D03*
D39*
X254104000Y-298450000D03*
X254104000Y-300990000D03*
%TD*%
D29*
%TO.C,RR9*%
X315595000Y-210185000D03*
D30*
X315595000Y-212725000D03*
X315595000Y-215265000D03*
X315595000Y-217805000D03*
X315595000Y-220345000D03*
X315595000Y-222885000D03*
X315595000Y-225425000D03*
X315595000Y-227965000D03*
X315595000Y-230505000D03*
X315595000Y-233045000D03*
%TD*%
D40*
%TO.C,R19*%
X258572000Y-76708000D03*
D41*
X258572000Y-86868000D03*
%TD*%
D31*
%TO.C,P12*%
X157734000Y-297693000D03*
D30*
X157734000Y-295153000D03*
%TD*%
D42*
%TO.C,C9*%
X295458000Y-99314000D03*
D36*
X298958000Y-99314000D03*
%TD*%
D29*
%TO.C,P4*%
X132080000Y-198120000D03*
D30*
X134620000Y-198120000D03*
X132080000Y-200660000D03*
X134620000Y-200660000D03*
X132080000Y-203200000D03*
X134620000Y-203200000D03*
X132080000Y-205740000D03*
X134620000Y-205740000D03*
X132080000Y-208280000D03*
X134620000Y-208280000D03*
X132080000Y-210820000D03*
X134620000Y-210820000D03*
X132080000Y-213360000D03*
X134620000Y-213360000D03*
X132080000Y-215900000D03*
X134620000Y-215900000D03*
X132080000Y-218440000D03*
X134620000Y-218440000D03*
X132080000Y-220980000D03*
X134620000Y-220980000D03*
X132080000Y-223520000D03*
X134620000Y-223520000D03*
X132080000Y-226060000D03*
X134620000Y-226060000D03*
X132080000Y-228600000D03*
X134620000Y-228600000D03*
%TD*%
D29*
%TO.C,RR1*%
X312420000Y-121285000D03*
D30*
X312420000Y-123825000D03*
X312420000Y-126365000D03*
X312420000Y-128905000D03*
X312420000Y-131445000D03*
X312420000Y-133985000D03*
X312420000Y-136525000D03*
X312420000Y-139065000D03*
X312420000Y-141605000D03*
X312420000Y-144145000D03*
%TD*%
D37*
%TO.C,Q4*%
X287718000Y-298450000D03*
D43*
X304378000Y-300990000D03*
D39*
X304378000Y-298450000D03*
X304378000Y-295910000D03*
%TD*%
D29*
%TO.C,RR6*%
X315976000Y-121285000D03*
D30*
X315976000Y-123825000D03*
X315976000Y-126365000D03*
X315976000Y-128905000D03*
X315976000Y-131445000D03*
X315976000Y-133985000D03*
X315976000Y-136525000D03*
X315976000Y-139065000D03*
X315976000Y-141605000D03*
X315976000Y-144145000D03*
%TD*%
D34*
%TO.C,Q2*%
X295402000Y-289560000D03*
D35*
X296672000Y-288290000D03*
X297942000Y-289560000D03*
%TD*%
D42*
%TO.C,C11*%
X306380000Y-99060000D03*
D36*
X309880000Y-99060000D03*
%TD*%
D44*
%TO.C,J1*%
X310642000Y-89154000D03*
D45*
X310642000Y-83154000D03*
D46*
X305942000Y-86154000D03*
%TD*%
D32*
%TO.C,IC4*%
X268986000Y-97028000D03*
D30*
X271526000Y-97028000D03*
D33*
X274066000Y-97028000D03*
X276606000Y-97028000D03*
D30*
X279146000Y-97028000D03*
D32*
X268986000Y-94488000D03*
%TD*%
D47*
%TO.C,SW2*%
X295402000Y-89408000D03*
X292862000Y-89408000D03*
X290322000Y-89408000D03*
X295402000Y-84328000D03*
X290322000Y-84328000D03*
%TD*%
D48*
X319024000Y-304673000D02*
X319024000Y-74930000D01*
X128778000Y-304673000D02*
X319024000Y-304673000D01*
X128778000Y-74930000D02*
X128778000Y-304673000D01*
X319024000Y-74930000D02*
X128778000Y-74930000D01*
M02*
