%TF.GenerationSoftware,KiCad,Pcbnew,7.0.5*%
%TF.CreationDate,2024-05-06T13:59:13-05:00*%
%TF.ProjectId,S100-Backplane,53313030-2d42-4616-936b-706c616e652e,rev?*%
%TF.SameCoordinates,Original*%
%TF.FileFunction,Drillmap*%
%TF.FilePolarity,Positive*%
%FSLAX45Y45*%
G04 Gerber Fmt 4.5, Leading zero omitted, Abs format (unit mm)*
G04 Created by KiCad (PCBNEW 7.0.5) date 2024-05-06 13:59:13*
%MOMM*%
%LPD*%
G01*
G04 APERTURE LIST*
%ADD10C,0.381000*%
%ADD11C,0.200000*%
G04 APERTURE END LIST*
D10*
X31902400Y-30467300D02*
X31902400Y-7493000D01*
X12877800Y-30467300D02*
X31902400Y-30467300D01*
X12877800Y-7493000D02*
X12877800Y-30467300D01*
X31902400Y-7493000D02*
X12877800Y-7493000D01*
D11*
X13119527Y-30797834D02*
X13119527Y-30597834D01*
X13119527Y-30597834D02*
X13167146Y-30597834D01*
X13167146Y-30597834D02*
X13195717Y-30607358D01*
X13195717Y-30607358D02*
X13214765Y-30626405D01*
X13214765Y-30626405D02*
X13224289Y-30645453D01*
X13224289Y-30645453D02*
X13233812Y-30683548D01*
X13233812Y-30683548D02*
X13233812Y-30712119D01*
X13233812Y-30712119D02*
X13224289Y-30750215D01*
X13224289Y-30750215D02*
X13214765Y-30769262D01*
X13214765Y-30769262D02*
X13195717Y-30788310D01*
X13195717Y-30788310D02*
X13167146Y-30797834D01*
X13167146Y-30797834D02*
X13119527Y-30797834D01*
X13319527Y-30797834D02*
X13319527Y-30664500D01*
X13319527Y-30702596D02*
X13329051Y-30683548D01*
X13329051Y-30683548D02*
X13338574Y-30674024D01*
X13338574Y-30674024D02*
X13357622Y-30664500D01*
X13357622Y-30664500D02*
X13376670Y-30664500D01*
X13443336Y-30797834D02*
X13443336Y-30664500D01*
X13443336Y-30597834D02*
X13433812Y-30607358D01*
X13433812Y-30607358D02*
X13443336Y-30616881D01*
X13443336Y-30616881D02*
X13452860Y-30607358D01*
X13452860Y-30607358D02*
X13443336Y-30597834D01*
X13443336Y-30597834D02*
X13443336Y-30616881D01*
X13567146Y-30797834D02*
X13548098Y-30788310D01*
X13548098Y-30788310D02*
X13538574Y-30769262D01*
X13538574Y-30769262D02*
X13538574Y-30597834D01*
X13671908Y-30797834D02*
X13652860Y-30788310D01*
X13652860Y-30788310D02*
X13643336Y-30769262D01*
X13643336Y-30769262D02*
X13643336Y-30597834D01*
X13900479Y-30797834D02*
X13900479Y-30597834D01*
X13900479Y-30597834D02*
X13967146Y-30740691D01*
X13967146Y-30740691D02*
X14033812Y-30597834D01*
X14033812Y-30597834D02*
X14033812Y-30797834D01*
X14214765Y-30797834D02*
X14214765Y-30693072D01*
X14214765Y-30693072D02*
X14205241Y-30674024D01*
X14205241Y-30674024D02*
X14186193Y-30664500D01*
X14186193Y-30664500D02*
X14148098Y-30664500D01*
X14148098Y-30664500D02*
X14129051Y-30674024D01*
X14214765Y-30788310D02*
X14195717Y-30797834D01*
X14195717Y-30797834D02*
X14148098Y-30797834D01*
X14148098Y-30797834D02*
X14129051Y-30788310D01*
X14129051Y-30788310D02*
X14119527Y-30769262D01*
X14119527Y-30769262D02*
X14119527Y-30750215D01*
X14119527Y-30750215D02*
X14129051Y-30731167D01*
X14129051Y-30731167D02*
X14148098Y-30721643D01*
X14148098Y-30721643D02*
X14195717Y-30721643D01*
X14195717Y-30721643D02*
X14214765Y-30712119D01*
X14310003Y-30664500D02*
X14310003Y-30864500D01*
X14310003Y-30674024D02*
X14329051Y-30664500D01*
X14329051Y-30664500D02*
X14367146Y-30664500D01*
X14367146Y-30664500D02*
X14386193Y-30674024D01*
X14386193Y-30674024D02*
X14395717Y-30683548D01*
X14395717Y-30683548D02*
X14405241Y-30702596D01*
X14405241Y-30702596D02*
X14405241Y-30759738D01*
X14405241Y-30759738D02*
X14395717Y-30778786D01*
X14395717Y-30778786D02*
X14386193Y-30788310D01*
X14386193Y-30788310D02*
X14367146Y-30797834D01*
X14367146Y-30797834D02*
X14329051Y-30797834D01*
X14329051Y-30797834D02*
X14310003Y-30788310D01*
X14490955Y-30778786D02*
X14500479Y-30788310D01*
X14500479Y-30788310D02*
X14490955Y-30797834D01*
X14490955Y-30797834D02*
X14481432Y-30788310D01*
X14481432Y-30788310D02*
X14490955Y-30778786D01*
X14490955Y-30778786D02*
X14490955Y-30797834D01*
X14490955Y-30674024D02*
X14500479Y-30683548D01*
X14500479Y-30683548D02*
X14490955Y-30693072D01*
X14490955Y-30693072D02*
X14481432Y-30683548D01*
X14481432Y-30683548D02*
X14490955Y-30674024D01*
X14490955Y-30674024D02*
X14490955Y-30693072D01*
M02*
